<?xml version="1.0" encoding="UTF-8"?><svg xmlns="http://www.w3.org/2000/svg" viewBox="0 0 125 256"><defs><style>.e{fill:#fff;}.f{fill:#29abe2;}</style></defs><g id="a"><path class="e" d="M38.238,33.404h49.075c9.178,0,16.63,7.452,16.63,16.63v16.304H21.608v-16.304c0-9.178,7.452-16.63,16.63-16.63Z"/><path class="e" d="M62.775,1.468h0c6.885,0,12.475,5.59,12.475,12.475v19.461h-24.95V13.943c0-6.885,5.59-12.475,12.475-12.475Z"/><g><path class="f" d="M10.513,144.315c9.098,.515,17.452,4.934,26.204,7.474,13.352,3.876,27.959,3.285,40.955-1.657,6.25-2.377,12.187-5.741,18.748-7.034,8.714-1.718,17.686,.368,26.28,2.615,.817,.214,1.635,.431,2.452,.648V78.314c0-6.587-5.389-11.976-11.976-11.976H12.376c-6.587,0-11.976,5.389-11.976,11.976v67.063c3.291-.865,6.69-1.256,10.112-1.062Z"/><path class="e" d="M12.376,254.96H113.174c6.587,0,11.976-5.389,11.976-11.976v-96.623c-.817-.217-1.634-.434-2.452-.648-8.593-2.247-17.565-4.333-26.28-2.615-6.56,1.293-12.497,4.658-18.748,7.034-12.995,4.942-27.603,5.533-40.955,1.657-8.752-2.54-17.105-6.959-26.204-7.474-3.422-.194-6.822,.197-10.112,1.062v97.607c0,6.587,5.389,11.976,11.976,11.976Z"/></g></g><g id="b"/><g id="c"/><g id="d"/></svg>