<?xml version="1.0" encoding="UTF-8"?>
<svg id="Layer_2" data-name="Layer 2" xmlns="http://www.w3.org/2000/svg" viewBox="0 0 1024 1024">
  <defs>
    <style>
      .cls-1 {
        fill: #fff;
      }

      .cls-2 {
        fill: #0c0c0c;
      }

      .cls-3 {
        stroke-width: 5px;
      }

      .cls-3, .cls-4 {
        fill: none;
        stroke: #0c0c0c;
        stroke-linecap: round;
        stroke-miterlimit: 10;
      }
    </style>
  </defs>
  <g>
    <circle class="cls-1" cx="488.27425" cy="452.30271" r="224.13782"/>
    <path class="cls-2" d="M523.71709,422.62268c-12.17778,3.45638-23.27686,10.75017-26.28078,35.44819-3.15597,55.27617,2.71146,61.99496,8.42986,63.24931,3.75493,7.39556,7.50986,23.83995,11.26479,41.70103,3.36934,22.2487,6.78043,8.09411,11.6287,37.77037,5.55901-1.54642,12.80704-.04572,20.17702,18.1314,4.89694,10.57295,10.06091-20.68493,15.88243,14.71551,5.67589-12.08506,11.48851-28.67465,17.07612-16.45969,10.64209-32.68162,21.23315-64.08943,30.46142-48.04522,9.22827-34.16106,17.05842-56.99621,20.28981-70.64421,3.35851-46.12174,1.45752-52.66356-3.66264-75.71077-5.12017,23.12935-13.24212-4.18766-22.2749-3.61725-6.68201-20.38132-13.89396-31.93985-21.08985-25.26811-20.64262,13.00189-37.0474,4.30569-61.90199,28.72944Z"/>
    <path class="cls-3" d="M331.8847,511.11148c-1.25542-9.26813-2.51228-18.66041-1.35757-27.86504,1.97423-15.73735,11.09796-29.91316,23.51195-39.55841,12.41399-9.64525,27.9048-14.98566,43.70798-16.93779,6.1789-.76327,13.30865-1.52459,16.62602-6.69643"/>
    <path class="cls-3" d="M456.63885,381.41739c12.49438-24.11469,15.69005-54.5104,36.17743-71.94645,18.69625-15.9117,45.36548-14.95333,67.89039-8.77844"/>
    <path class="cls-4" d="M440.91449,367.71718c.13348-20.65166,3.10044-41.19334,8.79276-60.87648"/>
    <path class="cls-4" d="M447.75728,357.36875c1.7143-12.31632,4.07813-24.52279,7.07862-36.55296"/>
    <path class="cls-4" d="M406.99689,406.76548c-8.73052-.46571-17.27915-3.01291-25.97643-4.06985s-18.09718-.41177-24.94184,4.76928"/>
    <path class="cls-4" d="M367.20135,393.37183c-12.99022-.8617-26.09418,2.85467-36.45498,10.33888"/>
    <path class="cls-4" d="M468.04371,388.22665c6.35774-4.85301,8.79095-13.15727,10.87459-20.92085l4.81225-17.93034"/>
    <path class="cls-4" d="M419.3967,439.62852c-4.9748,3.51097-10.30477,6.53318-15.89201,9.01112-1.39567,.61898-2.83069,1.21035-4.36108,1.38383-2.10094,.23816-4.22295-.32419-6.32961-.65397-5.73553-.89783-11.68106-.03584-16.81859,2.43837"/>
  </g>
  <g>
    <path class="cls-1" d="M120.979,496.65625c.1543-1.67676-2.11523-6.83008-7.32617-9.7793-14.24316-8.07031-25.68506-10.80811-36.55518-11.80225-1.81152-.16553-2.99707-1.18457-2.85596-2.73389,.86182-9.42139,8.79736-14.2915,14.59473-13.76123,3.62354,.33105,19.81982,7.01855,37.01562,12.75537,28.89453,9.67041,71.94287,20.37402,69.77197,44.12109-1.47412,16.13281-20.68604,22.44434-26.66455,21.89746-1.63086-.14844-2.63477-1.15137-2.54102-2.18457,.16504-1.80664,4.47412-2.97363,5.19385-10.84668,1.74658-19.10059-26.20654-29.0752-41.97705-34.42188-.54346-.0498-.89453-.21191-1.25635-.24512-.18115-.0166-.37402,.0957-.38623,.22461-.12891,1.4209,9.80029,8.70508,8.70312,20.70801-.55469,6.06543-4.92969,9.95996-13.80762,9.14844-13.22559-1.20996-33.90381-14.81348-48.39795-16.13965-1.81152-.16602-2.96191-1.57227-2.74951-3.89551,.59033-6.45215,9.13965-12.04688,16.56787-11.36816,10.32617,.94434,20.13867,9.51953,29.19727,10.34863,2.17432,.19922,3.34375-.60547,3.47314-2.02539Z"/>
    <path class="cls-1" d="M82.7251,420.44141c2.60156-12.6958,12.40967-17.9624,24.88574-15.40771,21.56738,4.41748,40.54639,24.17822,36.40967,44.36377-2.10742,10.28369-10.41504,16.38721-23.24805,13.75879-15.32812-3.13916-22.92725-14.08789-25.00293-17.55518-.91748-.05615-1.63037-.20166-2.34326-.34766-7.84229-1.60645-13.01611-13.51318-10.70117-24.81201Zm49.11279,23.1543c1.40479-6.85596-20.33105-19.50928-31.20361-21.73535-4.45557-.91211-6.11572-.06201-6.61035,2.34961-.70215,3.42822,3.8125,8.58594,10.229,9.90039,3.74268,.76611,5.75928-.01123,7.5415,.35352,1.06982,.21924,2.16162,1.23682,1.95264,2.25195-.31201,1.52344-1.94922,3.17285-4.27441,4.54834,3.35693,1.74609,7.63037,3.54639,12.44287,4.53223,6.41602,1.31396,9.40234,.33838,9.92236-2.20068Z"/>
    <path class="cls-1" d="M138.06006,390.5415c2.07227,.68945,3.35303,.2959,3.80273-1.05664,2.37305-7.13135-21.90967-24.63086-38.1377-30.02881-1.72656-.57422-2.64844-1.83643-2.07617-3.55811,2.37305-7.13184,11.78271-11.78662,17.30762-9.94873,5.35205,1.78027,20.75635,17.146,36.12158,22.25635,6.04199,2.00977,6.50146,1.20654,8.74561,1.95264,1.2085,.40283,1.86719,1.3042,1.45801,2.53418-3.31299,9.95947-14.24951,10.55615-14.53564,11.4165-.44971,1.35254,7.00928,11.2085,3.57227,21.53662-1.92188,5.77979-8.09668,8.7793-17.07422,5.79248-12.43018-4.13428-28.62549-20.58301-42.43652-25.17627-1.72656-.57471-2.52637-2.20605-1.74902-4.54248,2.00488-6.02441,11.60498-9.52344,18.68359-7.16895,8.97754,2.98584,17.68604,13.12061,26.31787,15.99121Z"/>
    <path class="cls-1" d="M199.86768,303.26807c-5.15137,9.146-16.06396,7.7583-16.50879,8.54883-.76318,1.35498,4.87061,12.11328-.91602,22.3877-3.24365,5.7583-10.66895,6.33545-19.54541,1.33643-20.60791-11.60742-34.56494-39.1001-24.19873-57.50391,5.46973-9.70996,17.33838-12.24561,20.98438-10.19238,3.01221,1.69629,12.16016,18.44971,31.65771,29.43066,4.75537,2.67871,5.67627,2.15625,7.57861,3.22803,1.10938,.62402,1.58398,1.63574,.94824,2.76465Zm-31.55371,13.7583c1.58545,.89258,3.23535,.92969,3.99805-.42529,3.37061-5.98438-17.18945-29.90869-20.67676-31.87305-1.42676-.80371-2.31543-.70898-2.82422,.19434-3.87939,6.8877,9.19922,26.30029,19.50293,32.104Z"/>
    <path class="cls-1" d="M174.40088,226.34521c2.38477-3.2334,6.55811-3.37549,11.39062,.18799,7.61279,5.61523,13.0083,20.06201,10.77783,23.08643-.76953,1.04297-1.6626,1.02783-2.98779,.37256-2.72656-1.20605-7.92139-5.19824-9.76758-2.69482-.8457,1.14795-.61963,4.21289,2.17188,9.00977,5.22168,9.16455,17.45605,24.146,22.14111,27.60205,2.19678,1.61963,3.28418,2.90479,2.05322,4.57373-3.61621,4.90088-10.37256,10.38525-15.64355,6.49805-10.54199-7.7749-24.54883-32.9209-36.26172-41.55957-1.46436-1.08008-1.79688-2.77441-.33545-4.75635,6.84619-9.28223,16.13965-2.2666,16.44727-2.68457,.30811-.41699-5.21729-12.54346,.01416-19.63525Z"/>
    <path class="cls-1" d="M237.15283,217.99023c.7085-.75732,2.47949-.52051,3.67578,.59766,2.39209,2.23633,11.1709,20.5542-2.72119,35.41699-6.01709,6.43799-16.51025,6.73975-26.21338-2.33008-16.48096-15.40723-21.14893-43.71777-9.02588-56.68799,6.81396-7.28906,14.78467-5.15918,19.96826-.31396,10.2334,9.56689,7.59082,29.44727,1.88574,40.0791,3.32324,2.04199,6.33301,2.01758,8.89941-.72705,6.01758-6.4375,2.2041-14.61426,3.53125-16.03467Zm-19.91748,9.58545c3.35938-8.38965,1.89111-19.3418-2.22949-23.19287-1.59473-1.49121-2.87891-1.4502-3.76367-.50342-2.83154,3.0293-.69824,14.60254,5.99316,23.69629Z"/>
    <path class="cls-1" d="M313.5166,189.10059c-8.54346,6.09717-17.8374,.21338-18.57568,.74072-1.26611,.90332-.72705,13.03564-10.3252,19.88672-5.37988,3.83936-12.34863,1.21338-18.26709-7.07959-13.73975-19.25244-14.71875-50.07129,2.4751-62.34277,9.07129-6.47461,20.89551-3.73682,23.32666-.33057,2.00732,2.81299,3.18604,21.86572,16.18604,40.08105,3.1709,4.44336,4.22559,4.36035,5.49414,6.1377,.74023,1.03662,.74121,2.15381-.31396,2.90674Zm-34.41016-.92285c1.05762,1.48096,2.53564,2.21436,3.80078,1.31055,5.59082-3.99023-2.88135-34.37793-5.20605-37.63574-.95166-1.33301-1.79639-1.62402-2.64014-1.02197-6.43408,4.59229-2.82471,27.7207,4.04541,37.34717Z"/>
    <path class="cls-1" d="M299.25244,124.22559c-.80078-1.6333-.19727-3.34717,1.89746-4.37402,5.81836-2.85205,15.04346,1.5415,18.32666,8.23975,4.56348,9.31152,1.66602,24.30615,5.66992,32.4751,.96094,1.96094,2.37207,2.48389,3.53564,1.91357,6.5166-3.19336,4.12256-29.57471-5.00635-48.19922-1.28076-2.61328-1.81299-4.58203,.51514-5.72266,8.37842-4.10645,16.08301,.42383,18.64502,5.65186,2.48242,5.06494,4.54248,29.58447,6.86377,34.32129,.96094,1.96045,2.25586,2.54199,3.41992,1.97168,7.68018-3.76416,3.43066-28.62939-3.53516-42.8418-2.2417-4.57422-3.02051-4.396-3.90088-6.19287-.80078-1.6333-.31396-3.29004,1.89746-4.37402,8.37793-4.10645,15.61768,.65234,18.18018,5.88037,9.12793,18.62354,14.33252,51.32666-5.68262,61.13721-8.49512,4.16406-16.79736-1.29102-17.49512-.94873-1.04736,.51367-4.03369,11.5-14.85547,16.80469-6.98242,3.42236-13.88672,.5249-18.05029-7.9707-5.76514-11.76221-4.01953-34.70215-10.42529-47.77148Z"/>
    <path class="cls-1" d="M428.99951,139.08936c-10.02051,3.125-17.01367-5.36719-17.87891-5.09668-1.48535,.4624-4.76074,12.15723-16.01904,15.66797-6.31006,1.9668-12.11084-2.7041-15.14404-12.42969-7.04297-22.57959,1.64941-52.1626,21.81494-58.45068,10.64014-3.31738,21.01904,2.97461,22.26514,6.96973,1.0293,3.2998-3.79883,21.76758,2.86426,43.13135,1.62451,5.20947,2.65332,5.46045,3.30371,7.54541,.37939,1.21582,.03125,2.27734-1.20605,2.6626Zm-32.40332-11.62158c.5415,1.73682,1.71729,2.89502,3.20215,2.43262,6.55615-2.04541,7.99512-33.55811,6.80371-37.37939-.48828-1.56348-1.19971-2.10352-2.18945-1.79492-7.54639,2.35303-11.33789,25.45215-7.81641,36.7417Z"/>
    <path class="cls-1" d="M450.85547,90.33301c.10303,.53662,.39209,.66699,.64648,.61719,4.96338-.95166,10.31201-13.64941,10.18457-23.25781,.07324-1.68115,.82617-2.56738,2.1001-2.81104,4.7085-.90332,14.10156-2.1499,15.16406,3.38916,2.02197,10.54199-13.70361,29.67578-22.52441,33.2207,0,0,6.81445,8.69678,16.10498,6.91455,2.80029-.53711,3.22998-1.73145,4.50293-1.97559,1.27295-.24365,1.91895,.37256,2.22705,1.98096,1.13184,5.89648-4.88379,21.31494-13.7915,23.02393-7,1.34326-13.21826-20.06543-15.63574-19.60107-1.52686,.29297-1.95264,13.89795-1.24756,18.94971,.3877,2.70459,.0835,3.87402-1.69824,4.21582-5.98096,1.14795-14.66455,.59131-15.89844-5.8418-2.46826-12.86523,9.12842-85.85645,6.38623-100.15088-.34326-1.7876,.56201-3.25781,2.97998-3.72168,5.34473-1.02588,14.01416,5.64795,14.9751,10.65088,1.50781,7.8623-4.85205,52.43262-4.47559,54.39697Z"/>
    <path class="cls-1" d="M522.97754,99.35791c1.03223-.0957,2.19922,1.2583,2.34961,2.88818,.30273,3.26172-5.30664,22.7832-25.56543,24.66016-8.77539,.81152-16.81885-5.93506-18.04443-19.15967-2.08203-22.46436,13.23975-46.72266,30.91797-48.35986,9.93604-.91992,14.479,5.96826,15.1333,13.0332,1.29297,13.94922-13.8916,27.04932-25.21924,31.20557,1.12695,3.73242,3.39307,5.71533,7.13525,5.36865,8.77441-.81299,11.35742-9.45703,13.29297-9.63623Zm-21.25635-6.07178c8.08545-4.03711,14.26514-13.19678,13.74365-18.81348-.20117-2.17334-1.18848-2.99561-2.47949-2.87646-4.12891,.38281-10.22363,10.44824-11.26416,21.68994Z"/>
  </g>
  <path class="cls-1" d="M967.54381,755.38224c-.80343-4.03139-2.02186-8.00454-3.73777-11.88678-2.95679-6.68968-6.87339-13.23714-11.16269-19.52779-2.48406-3.64312-5.35319-7.14789-8.54291-10.49281-8.84027-9.2704-18.83415-18.24128-30.62675-25.66576-11.67072-7.34772-24.3744-14.27741-38.02934-19.63484-6.29598-2.4702-12.65972-4.70862-19.15966-6.59342-.68971-3.53716-1.58281-7.0401-2.58092-10.46674-1.01637-3.48925-2.384-6.92583-4.08109-10.27461-3.17911-6.27312-6.76288-12.54755-11.11446-18.45828-2.31405-3.14315-4.9423-6.16711-7.86911-9.03274-5.42629-5.31287-10.96509-10.74416-17.44869-15.4445-6.36176-4.61202-13.75444-8.52803-20.97667-12.37232-3.95773-2.10663-8.16462-3.97237-12.56959-5.5525-8.26932-2.96628-16.95422-5.68041-25.83509-7.57998-8.88362-1.90021-18.19834-2.58555-27.35421-3.39324-14.34656-1.26561-28.62902,.07658-42.81118,1.8704-13.97795,1.76802-27.50489,5.84062-40.15996,10.30683-2.86876,1.01243-5.6691,2.12429-8.39399,3.32514-5.54075-3.47275-11.5585-6.59604-17.55955-9.43132-3.2486-1.53484-6.64941-2.90351-10.1695-4.08727-7.40132-2.48894-15.02617-4.9519-22.8678-6.66723-11.57907-2.53288-24.20707-3.81157-36.29452-3.6138-11.81964,.19342-24.31341,1.40707-35.60088,4.15768-11.11697,2.70905-22.38245,6.11387-32.16601,10.87832-9.4852,4.61915-19.03132,9.88871-26.80264,16.06864-2.77297-1.09531-5.61172-2.1035-8.51169-3.01216-6.82763-2.13933-13.85995-4.50466-21.09195-6.01355-7.74164-1.61522-16.0443-2.20345-23.95234-2.86058-10.98277-.91265-23.00729-.05402-33.44266,2.43775-14.07583,3.36102-28.20112,8.73529-37.86875,17.07277-2.17638-.13654-4.34801-.25398-6.51034-.35315-15.80754-.725-31.8521,.69863-47.35597,2.79584-5.22084,.70622-10.39239,1.64561-15.37644,2.97964-8.70895,2.33107-18.20831,4.84836-25.9135,8.80124-5.23969,2.68803-10.56738,5.47065-15.26679,8.64955-4.91374,3.3239-8.91908,7.5096-12.85661,11.37186-5.49443,5.38935-8.92199,11.88376-12.08162,18.0919-3.38572,6.65232-4.35487,14.14083-5.2625,21.08224-.42957,3.28539-.32768,6.56268,.04721,9.83107-15.47253,4.54474-28.504,9.53915-40.76427,18.18306-12.84277,9.05458-20.14367,19.37311-26.57652,31.2169-4.87237,8.97071-6.38048,19.10291-7.38429,28.58404-1.06421,10.05124,.64006,19.87922,2.69042,29.82432,3.90697,18.95048,16.46569,37.48848,35.09568,51.19718,8.11169,5.96893,17.00084,10.57718,26.69072,14.34885-.35439,9.23516,1.25537,18.43343,3.46638,27.55204,2.39303,9.8693,7.7785,19.39472,13.92914,28.31905,5.74289,8.33274,13.92392,16.00784,22.60463,22.82539,8.86766,6.9644,19.78245,13.15877,31.29754,17.66264,7.19224,2.81304,14.86528,5.06948,22.56027,7.04552,9.41591,2.41794,19.47708,3.13909,29.33033,4.00345,10.99557,.96454,21.89189,.62099,32.85884-.38743,14.72645-1.35412,29.26463-2.88347,43.57865-5.75295,6.03962-1.21074,11.98757-2.62835,17.86615-4.1867,3.85868,4.04982,8.21629,7.90018,12.57662,11.58634,3.42137,2.89239,7.20004,5.56344,11.25309,7.9943,7.32338,4.39223,14.95545,8.78213,23.17907,12.31027,8.137,3.49097,17.04481,6.01284,25.79118,8.55881,5.28247,1.53767,10.74435,2.68845,16.3123,3.54927,17.22479,2.66302,35.22244,3.97639,52.84408,3.21548,18.05511-.77964,36.17837-2.8372,53.82327-5.70658,26.80185-4.35845,53.05821-10.13575,77.93543-18.63322,5.18528-1.77115,10.23779-3.75689,15.02619-6.03909,1.941-.92512,3.87469-1.87628,5.78945-2.85447,4.04836,2.20556,8.21088,4.29809,12.51126,6.20121,8.2333,3.64356,17.38417,6.26555,26.33573,8.78465,5.07229,1.4274,10.32563,2.51001,15.67067,3.25634,9.38658,1.31067,19.0554,2.29854,28.63478,2.54994,5.47279,.14364,10.93923-.05758,16.37286-.53887,9.54709-.84567,19.20871-1.59946,28.50372-3.47108,14.19546-2.8584,28.51312-7.19259,40.80586-13.1137,7.77502-3.74508,15.35394-7.90552,22.18461-12.51905,6.99591-4.72511,12.74135-10.37726,18.41249-15.90654,3.29491-3.21247,6.1407-6.66269,8.51464-10.27223,4.05489-6.16545,7.94665-12.55734,10.56359-19.1454,2.67163-6.72582,3.7127-13.74693,4.8748-20.66533,.66847-3.9797,.9176-7.98787,.69515-11.99433-.52747-9.49944-2.60756-18.90307-6.24142-27.94363,1.26036-.7288,2.51192-1.45925,3.75738-2.18348,4.00754-2.33036,7.71681-4.89919,11.08344-7.70858,6.05576-5.05342,11.94156-10.43152,16.79915-16.14697,5.02032-5.9069,8.58266-12.4202,12.16023-18.81896,1.90584-3.40873,3.4631-6.91118,4.58324-10.49793,2.13304-6.83017,3.4667-13.91201,3.91425-20.90323,.44532-6.9562-1.18292-13.81589-2.55185-20.68482Z"/>
  <g>
    <path d="M375.89355,768.29395c0-.90234,.31006-1.6582,.92969-2.26855,.62012-.61133,1.37158-.91602,2.25488-.91602,.88281,0,1.63867,.30469,2.26855,.91602,.62939,.61035,.94385,1.36621,.94385,2.26855,0,.90137-.31445,1.6582-.94385,2.26855-.62988,.61035-1.38574,.91602-2.26855,.91602-.8833,0-1.63477-.30566-2.25488-.91602-.61963-.61035-.92969-1.36719-.92969-2.26855Zm5.43896-22.09473v16.74023h-5.21387v-43.57031h5.21387v4.79102c1.08936-1.87793,2.46582-3.27344,4.12891-4.18457,1.6626-.91113,3.64941-1.36719,5.96045-1.36719,2.53613,0,4.78125,.69043,6.73535,2.07129s3.47559,3.32617,4.56543,5.83398,1.63477,5.39648,1.63477,8.66602-.54492,6.1582-1.63477,8.66602-2.61133,4.45312-4.56543,5.83398-4.19922,2.07129-6.73535,2.07129c-2.31104,0-4.29785-.45605-5.96045-1.36719-1.66309-.91113-3.03955-2.30566-4.12891-4.18457Zm0-11.01953c0,2.53613,.35254,4.7207,1.05664,6.55273,.70459,1.83105,1.71924,3.23633,3.04395,4.21289,1.32471,.97754,2.89795,1.46582,4.7207,1.46582,1.82178,0,3.39551-.48828,4.72021-1.46582,1.32471-.97656,2.33936-2.38184,3.04395-4.21289,.70459-1.83203,1.05664-4.0166,1.05664-6.55273s-.35205-4.7207-1.05664-6.55273c-.70459-1.83105-1.71924-3.23535-3.04395-4.21289-1.32471-.97656-2.89844-1.46582-4.72021-1.46582-1.82275,0-3.396,.48926-4.7207,1.46582-1.32471,.97754-2.33936,2.38184-3.04395,4.21289-.7041,1.83203-1.05664,4.0166-1.05664,6.55273Zm1.35254-2.62109c0-.90137,.31006-1.65723,.93018-2.26855,.62012-.61035,1.37109-.91602,2.25488-.91602,.88281,0,1.63867,.30566,2.26855,.91602,.62891,.61133,.94385,1.36719,.94385,2.26855,0,.90234-.31494,1.6582-.94385,2.26855-.62988,.61133-1.38574,.91602-2.26855,.91602-.88379,0-1.63477-.30469-2.25488-.91602-.62012-.61035-.93018-1.36621-.93018-2.26855Zm10.65332,89.14062v0Zm19.0791-139.95312v0Z"/>
    <path d="M431.12793,724.2168c-1.12744-.65723-2.51807-.98633-4.1709-.98633-2.9126,0-5.15332,.94434-6.72168,2.83203-1.56885,1.88867-2.36279,4.59863-2.38135,8.13086v4.11426c-.48877-.62012-.73291-1.30566-.73291-2.05664,0-.77051,.24414-1.45605,.73291-2.05762,.30029-.35645,.66211-.63379,1.08496-.83105s.87793-.2959,1.3667-.2959c.8833,0,1.63916,.30566,2.26904,.91602,.62891,.61035,.94385,1.36621,.94385,2.26855,0,.90137-.31494,1.6582-.94385,2.26855-.62988,.61035-1.38574,.91602-2.26904,.91602-.48877,0-.94385-.09863-1.3667-.2959s-.78467-.47461-1.08496-.83203v12.62598h-5.21387v-31.56445h5.21387v4.9043c1.08936-1.91699,2.5083-3.33984,4.25537-4.26953,1.74756-.93066,3.87061-1.39551,6.36914-1.39551,.75146,0,1.625,.09473,2.62109,.28223l.02832,5.32617Zm12.2876,.8457v0Z"/>
    <path d="M462.18164,733.85547v2.53613h-23.8418c.2251,3.57031,1.30078,6.28906,3.22656,8.15918,1.92578,1.86914,4.60791,2.80371,8.04639,2.80371,3.87012,0,7.65576-.97656,11.35742-2.93066v4.90332c-3.81445,1.61523-7.70361,2.42383-11.66748,2.42383-3.32568,0-6.21924-.66211-8.68018-1.9873-2.46143-1.32422-4.35889-3.21289-5.69287-5.66406-1.33447-2.45215-2.00098-5.33105-2.00098-8.6377,0-3.41992,.62939-6.39746,1.88818-8.93457,1.25879-2.53613,3.05273-4.49023,5.38281-5.86133,2.32959-1.37109,5.06299-2.05762,8.20117-2.05762,2.79932,0,5.23682,.62012,7.31299,1.86035s3.67334,3.00586,4.79102,5.29785c1.11768,2.29297,1.67676,4.98828,1.67676,8.08887Zm-23.67285-1.49414l18.48779-.02832c-.01904-1.87793-.38574-3.51758-1.09912-4.91699-.71436-1.39941-1.70996-2.48535-2.9873-3.25586-1.27832-.76953-2.76221-1.15527-4.45312-1.15527-2.89355,0-5.20898,.81738-6.94678,2.45215-1.73828,1.63477-2.73877,3.93652-3.00146,6.9043Zm13.33008,23.27832c0-.90137,.31006-1.6582,.93018-2.26855s1.37109-.91602,2.25439-.91602c.88281,0,1.63916,.30566,2.26904,.91602,.62891,.61035,.94385,1.36719,.94385,2.26855,0,.90234-.31494,1.6582-.94385,2.26855-.62988,.61035-1.38623,.91602-2.26904,.91602-.8833,0-1.63428-.30566-2.25439-.91602s-.93018-1.36621-.93018-2.26855Zm24.49023,32.66309v0Z"/>
    <path d="M490.69971,720.2998v4.90332c-2.94971-1.50293-6.10596-2.25488-9.46875-2.25488-5.14844,0-7.72217,1.5791-7.72217,4.73535,0,1.20215,.45996,2.1416,1.38086,2.81836,.92041,.69531,2.771,1.35254,5.55176,1.97266l1.77588,.39453c2.47998,.52539,4.45703,1.18848,5.93213,1.98633,1.47461,.79883,2.55029,1.79004,3.22705,2.97363,.67627,1.18359,1.01465,2.64844,1.01465,4.39648,0,.37598-.00977,.65723-.02832,.84473-.16943,1.91699-.86475,3.54199-2.08545,4.87598-.33838-.54492-.50732-1.12695-.50732-1.74707,0-.78906,.24365-1.46973,.73242-2.04297s1.1084-.93457,1.86035-1.08594c.2627-.03711,.45996-.05566,.5918-.05566,.88281,0,1.63867,.30566,2.26855,.91602,.62939,.61035,.94434,1.36621,.94434,2.26855,0,.90137-.31494,1.6582-.94434,2.26855-.62988,.61035-1.38574,.91602-2.26855,.91602-.56348,0-1.08057-.12695-1.55029-.38086s-.84521-.60547-1.12695-1.05664c-1.08984,1.22168-2.56934,2.16113-4.43896,2.81836s-4.03467,.98633-6.49609,.98633c-3.36328,0-7.05518-.6582-11.0752-1.97266v-5.35449c3.81348,1.99121,7.54297,2.9873,11.18799,2.9873,2.42383,0,4.29785-.41797,5.62256-1.25488,1.32471-.83496,1.98682-2.01465,1.98682-3.53613,0-1.39062-.46973-2.4707-1.40918-3.24121-.9209-.73242-3.00635-1.45605-6.25635-2.16992l-1.80371-.42285c-3.21289-.67676-5.5332-1.71387-6.96094-3.11426-1.42822-1.39941-2.14209-3.32031-2.14209-5.7627,0-2.96875,1.05225-5.26074,3.15674-6.87695,2.104-1.61523,5.09131-2.42383,8.96191-2.42383,3.88916,0,7.25195,.56348,10.08887,1.69141Zm18.34668,47.14844v0Z"/>
    <path d="M520.6543,720.2998v4.90332c-2.94922-1.50293-6.10547-2.25488-9.46875-2.25488-5.14844,0-7.72217,1.5791-7.72217,4.73535,0,1.20215,.45996,2.1416,1.38086,2.81836,.92041,.69531,2.771,1.35254,5.55176,1.97266l1.77588,.39453c2.48047,.52539,4.45703,1.18848,5.93262,1.98633,1.47461,.79883,2.5498,1.79004,3.22656,2.97363s1.01465,2.64844,1.01465,4.39648c0,.37598-.00977,.65723-.02832,.84473-.16895,1.91699-.86426,3.54199-2.08496,4.87598-.33887-.54492-.50781-1.12695-.50781-1.74707,0-.78906,.24414-1.46973,.73242-2.04297,.48926-.57324,1.1084-.93457,1.86035-1.08594,.2627-.03711,.45996-.05566,.5918-.05566,.88281,0,1.63867,.30566,2.26855,.91602s.94434,1.36621,.94434,2.26855c0,.90137-.31445,1.6582-.94434,2.26855s-1.38574,.91602-2.26855,.91602c-.56348,0-1.08008-.12695-1.5498-.38086s-.8457-.60547-1.12695-1.05664c-1.08984,1.22168-2.56934,2.16113-4.43945,2.81836-1.86914,.65723-4.03467,.98633-6.49609,.98633-3.36328,0-7.05518-.6582-11.0752-1.97266v-5.35449c3.81348,1.99121,7.54297,2.9873,11.18799,2.9873,2.42383,0,4.29834-.41797,5.62256-1.25488,1.3252-.83496,1.9873-2.01465,1.9873-3.53613,0-1.39062-.46973-2.4707-1.40918-3.24121-.9209-.73242-3.00684-1.45605-6.25684-2.16992l-1.80371-.42285c-3.21289-.67676-5.5332-1.71387-6.96094-3.11426-1.42822-1.39941-2.14209-3.32031-2.14209-5.7627,0-2.96875,1.05225-5.26074,3.15674-6.87695,2.104-1.61523,5.09131-2.42383,8.96191-2.42383,3.88965,0,7.25195,.56348,10.08887,1.69141Zm18.34668,47.14844v0Z"/>
    <path d="M568.8418,720.2998v4.90332c-2.9502-1.50293-6.10645-2.25488-9.46973-2.25488-5.14844,0-7.72168,1.5791-7.72168,4.73535,0,1.20215,.45996,2.1416,1.38086,2.81836,.91992,.69531,2.77051,1.35254,5.55176,1.97266l1.77539,.39453c2.48047,.52539,4.45703,1.18848,5.93262,1.98633,1.47461,.79883,2.55078,1.79004,3.22656,2.97363,.67676,1.18359,1.01465,2.64844,1.01465,4.39648,0,.37598-.00977,.65723-.02832,.84473-.16895,1.91699-.86426,3.54199-2.08496,4.87598-.33789-.54492-.50781-1.12695-.50781-1.74707,0-.78906,.24414-1.46973,.7334-2.04297,.48828-.57324,1.1084-.93457,1.85938-1.08594,.26367-.03711,.46094-.05566,.5918-.05566,.88379,0,1.63965,.30566,2.26953,.91602,.62891,.61035,.94336,1.36621,.94336,2.26855,0,.90137-.31445,1.6582-.94336,2.26855-.62988,.61035-1.38574,.91602-2.26953,.91602-.56348,0-1.08008-.12695-1.5498-.38086s-.8457-.60547-1.12695-1.05664c-1.08984,1.22168-2.56934,2.16113-4.43945,2.81836-1.86914,.65723-4.03418,.98633-6.49609,.98633-3.36328,0-7.05469-.6582-11.0752-1.97266v-5.35449c3.81348,1.99121,7.54297,2.9873,11.18848,2.9873,2.42383,0,4.29785-.41797,5.62207-1.25488,1.3252-.83496,1.9873-2.01465,1.9873-3.53613,0-1.39062-.46973-2.4707-1.40918-3.24121-.9209-.73242-3.00684-1.45605-6.25684-2.16992l-1.80371-.42285c-3.21289-.67676-5.5332-1.71387-6.96094-3.11426-1.42773-1.39941-2.1416-3.32031-2.1416-5.7627,0-2.96875,1.05176-5.26074,3.15625-6.87695,2.10449-1.61523,5.0918-2.42383,8.96191-2.42383,3.88965,0,7.25195,.56348,10.08984,1.69141Zm18.34668,47.14844v0Z"/>
    <path d="M578.25195,768.29395c0-.90234,.30957-1.6582,.92969-2.26855,.62012-.61133,1.37109-.91602,2.25488-.91602,.88281,0,1.63867,.30469,2.26855,.91602,.62891,.61035,.94434,1.36621,.94434,2.26855,0,.90137-.31543,1.6582-.94434,2.26855-.62988,.61035-1.38574,.91602-2.26855,.91602-.88379,0-1.63477-.30566-2.25488-.91602s-.92969-1.36719-.92969-2.26855Zm5.43945-22.09473v16.74023h-5.21387v-43.57031h5.21387v4.79102c1.08887-1.87793,2.46582-3.27344,4.12793-4.18457,1.66309-.91113,3.65039-1.36719,5.96094-1.36719,2.53613,0,4.78125,.69043,6.73535,2.07129s3.47559,3.32617,4.56543,5.83398,1.63477,5.39648,1.63477,8.66602-.54492,6.1582-1.63477,8.66602-2.61133,4.45312-4.56543,5.83398-4.19922,2.07129-6.73535,2.07129c-2.31055,0-4.29785-.45605-5.96094-1.36719-1.66211-.91113-3.03906-2.30566-4.12793-4.18457Zm0-11.01953c0,2.53613,.35156,4.7207,1.05664,6.55273,.7041,1.83105,1.71875,3.23633,3.04297,4.21289,1.3252,.97754,2.89844,1.46582,4.7207,1.46582s3.39648-.48828,4.7207-1.46582c1.32422-.97656,2.33887-2.38184,3.04395-4.21289,.7041-1.83203,1.05664-4.0166,1.05664-6.55273s-.35254-4.7207-1.05664-6.55273c-.70508-1.83105-1.71973-3.23535-3.04395-4.21289-1.32422-.97656-2.89844-1.46582-4.7207-1.46582s-3.39551,.48926-4.7207,1.46582c-1.32422,.97754-2.33887,2.38184-3.04297,4.21289-.70508,1.83203-1.05664,4.0166-1.05664,6.55273Zm1.35254-2.62109c0-.90137,.30957-1.65723,.92969-2.26855,.62012-.61035,1.37109-.91602,2.25488-.91602,.88281,0,1.63867,.30566,2.26855,.91602,.62891,.61133,.94434,1.36719,.94434,2.26855,0,.90234-.31543,1.6582-.94434,2.26855-.62988,.61133-1.38574,.91602-2.26855,.91602-.88379,0-1.63477-.30469-2.25488-.91602-.62012-.61035-.92969-1.36621-.92969-2.26855Zm10.65234,89.14062v0Zm19.08008-139.95312v0Z"/>
    <path d="M607.95215,732.89746c0-.90234,.30957-1.6582,.92969-2.26953,.62012-.61035,1.37207-.91602,2.25488-.91602s1.63867,.30566,2.26855,.91602c.62988,.61133,.94434,1.36719,.94434,2.26953,0,.90137-.31445,1.6582-.94434,2.26855s-1.38574,.91602-2.26855,.91602-1.63477-.30566-2.25488-.91602-.92969-1.36719-.92969-2.26855Zm5.27051,8.84863c0-3.55078,1.1875-6.22852,3.56445-8.03223s5.92285-2.70508,10.63867-2.70508h7.27148v-.50684c0-2.38672-.78516-4.23242-2.35352-5.53809s-3.77148-1.95898-6.6084-1.95898c-3.62598,0-7.02734,.86426-10.20215,2.59277v-4.79102c3.81348-1.46484,7.39258-2.19824,10.7373-2.19824,4.56543,0,7.97559,1.18359,10.23047,3.55078,2.25391,2.36816,3.38184,5.95605,3.38184,10.76562v18.00879h-5.18555v-4.79102c-1.18359,1.91602-2.65918,3.33008-4.4248,4.24121-1.7666,.91113-3.92676,1.36719-6.48145,1.36719-2.12402,0-3.9834-.40918-5.58008-1.22559-1.59766-.81738-2.82812-1.98242-3.69238-3.49512-.86426-1.51172-1.2959-3.27344-1.2959-5.28418Zm16.31738-6.67871c-2.81836,0-5.03125,.20703-6.63672,.62012-1.60645,.41309-2.75781,1.0752-3.45312,1.98633s-1.04199,2.15625-1.04199,3.73438c0,1.8418,.60547,3.30176,1.81738,4.38184,1.21191,1.08105,2.86035,1.62109,4.94629,1.62109,1.89746,0,3.56445-.46094,5.00195-1.38086,1.4375-.9209,2.55078-2.22656,3.33984-3.91797,.78906-1.69043,1.18359-3.65332,1.18359-5.88965v-1.15527h-5.15723Zm-5.55176-3.86133c0-.01855,.00879-.02832,.02734-.02832l-.02734,.02832Zm.02734-.02832h.02832c0,.01953-.00488,.02832-.01367,.02832-.00977,0-.01465-.00879-.01465-.02832Zm9.04688-14.03418c0-.90234,.30957-1.6582,.92969-2.26953,.62012-.61035,1.37207-.91504,2.25488-.91504s1.63867,.30469,2.26855,.91504c.62988,.61133,.94434,1.36719,.94434,2.26953,0,.90137-.31445,1.6582-.94434,2.26855s-1.38574,.91602-2.26855,.91602-1.63477-.30566-2.25488-.91602-.92969-1.36719-.92969-2.26855Z"/>
    <path d="M673.16406,720.58105v4.84766c-2.9502-1.61523-5.90918-2.42383-8.87793-2.42383-2.23535,0-4.14746,.47949-5.73438,1.4375-1.58789,.95801-2.7998,2.34863-3.63574,4.1709s-1.25391,4.01172-1.25391,6.56641c0,1.69141,.1875,3.24121,.56348,4.65039,.2627,.95801,.60059,1.81348,1.01465,2.56445-.32031-.28223-.56836-.62988-.74707-1.04297s-.26758-.8457-.26758-1.2959v-.22559c.05566-.8457,.38965-1.55078,1-2.11426s1.33887-.84473,2.18457-.84473c.88281,0,1.63867,.30566,2.26855,.91504,.62891,.61133,.94434,1.36719,.94434,2.26953,0,.90137-.31543,1.6582-.94434,2.26855-.62988,.61035-1.38574,.91602-2.26855,.91602-.8457,0-1.56934-.28223-2.16992-.8457,.86328,1.61621,2.06152,2.84668,3.59277,3.69141,1.53125,.8457,3.34863,1.26855,5.45312,1.26855,2.96875,0,5.92773-.80762,8.87793-2.42383v4.79102c-2.89355,1.35254-6.04102,2.0293-9.44141,2.0293-3.1377,0-5.87598-.67676-8.21484-2.0293s-4.14258-3.27832-5.41113-5.77734c-1.26855-2.49805-1.90234-5.41992-1.90234-8.76465,0-3.40039,.63867-6.3457,1.91602-8.83496,1.27832-2.48926,3.10938-4.40137,5.49609-5.73535,2.38574-1.33398,5.2041-2.00098,8.4541-2.00098,3.25098,0,6.28516,.6582,9.10352,1.97266Zm6.67871,1.74805v0Z"/>
    <path d="M709.06543,733.85547v2.53613h-23.8418c.22559,3.57031,1.30078,6.28906,3.22656,8.15918,1.92578,1.86914,4.6084,2.80371,8.0459,2.80371,3.87012,0,7.65625-.97656,11.35742-2.93066v4.90332c-3.81445,1.61523-7.70312,2.42383-11.66699,2.42383-3.3252,0-6.21875-.66211-8.68066-1.9873-2.46094-1.32422-4.3584-3.21289-5.69238-5.66406-1.33398-2.45215-2.00098-5.33105-2.00098-8.6377,0-3.41992,.62891-6.39746,1.88867-8.93457,1.25781-2.53613,3.05273-4.49023,5.38281-5.86133,2.3291-1.37109,5.0625-2.05762,8.2002-2.05762,2.7998,0,5.2373,.62012,7.31348,1.86035s3.67285,3.00586,4.79102,5.29785c1.11816,2.29297,1.67676,4.98828,1.67676,8.08887Zm-23.67285-1.49414l18.4873-.02832c-.01855-1.87793-.38477-3.51758-1.09863-4.91699-.71484-1.39941-1.70996-2.48535-2.9873-3.25586-1.27832-.76953-2.76172-1.15527-4.45312-1.15527-2.89355,0-5.20898,.81738-6.94727,2.45215-1.7373,1.63477-2.73828,3.93652-3.00098,6.9043Zm13.33008,23.27832c0-.90137,.31055-1.6582,.92969-2.26855,.62012-.61035,1.37207-.91602,2.25488-.91602s1.63867,.30566,2.26855,.91602,.94434,1.36719,.94434,2.26855c0,.90234-.31445,1.6582-.94434,2.26855s-1.38574,.91602-2.26855,.91602-1.63477-.30566-2.25488-.91602c-.61914-.61035-.92969-1.36621-.92969-2.26855Zm24.49023,32.66309v0Z"/>
    <path d="M224.90381,806.15918h0Zm52.13721-26.49121v8.96191h10.68115v4.03027h-10.68115v17.13477c0,1.74707,.14551,3.04395,.43701,3.88965,.29102,.84473,.80762,1.41895,1.5498,1.71875,.74219,.30078,1.86426,.45117,3.36768,.45117h5.32666v4.33984h-5.32666c-2.72412,0-4.83789-.31934-6.34082-.95801-1.50342-.63867-2.5835-1.70508-3.24121-3.19922-.65771-1.49316-.98633-3.57422-.98633-6.24219v-17.13477h-3.80469v-4.03027h3.80469v-8.96191h5.21387Zm12.42822,11.18848c0-.88281,.30518-1.63867,.91602-2.26855,.61035-.62891,1.3667-.94434,2.26855-.94434s1.6582,.31543,2.26855,.94434c.61035,.62988,.91602,1.38574,.91602,2.26855,0,.88379-.30566,1.63477-.91602,2.25488s-1.3667,.92969-2.26855,.92969-1.6582-.30957-2.26855-.92969c-.61084-.62012-.91602-1.37109-.91602-2.25488Zm55.74463,3.21289h0Z"/>
    <path d="M291.69336,821.40625c0-.90234,.31006-1.6582,.93018-2.26855,.61963-.61035,1.37109-.91602,2.25439-.91602,.88281,0,1.63916,.30566,2.26855,.91602s.94434,1.36621,.94434,2.26855c0,.90137-.31494,1.6582-.94434,2.26855s-1.38574,.91602-2.26855,.91602c-.8833,0-1.63477-.30566-2.25439-.91602-.62012-.61035-.93018-1.36719-.93018-2.26855Zm.479-16.96582c0-3.43848,.57764-6.40137,1.7334-8.8916,1.15527-2.48926,2.81787-4.3916,4.98828-5.70703,2.16992-1.31445,4.75781-1.97266,7.76416-1.97266,2.9873,0,5.57031,.66211,7.75,1.9873,2.1792,1.32422,3.84668,3.22656,5.00244,5.70703,1.15527,2.47949,1.73291,5.43848,1.73291,8.87695,0,3.41992-.57764,6.37402-1.73291,8.86328-1.15576,2.49023-2.82324,4.39648-5.00244,5.7207-2.17969,1.3252-4.7627,1.9873-7.75,1.9873s-5.5708-.66211-7.75049-1.9873c-2.17969-1.32422-3.84668-3.23047-5.00195-5.7207-1.15576-2.48926-1.7334-5.44336-1.7334-8.86328Zm14.48584-12.1748c-1.8418,0-3.43848,.48926-4.79102,1.46582-1.35303,.97656-2.39551,2.38086-3.12842,4.21289s-1.09912,3.99805-1.09912,6.49609c0,2.49902,.36182,4.66406,1.08496,6.49609s1.76172,3.23633,3.11426,4.21289c1.35254,.97754,2.95898,1.46582,4.81934,1.46582,1.82178,0,3.40967-.49316,4.7627-1.47949,1.35254-.98633,2.39551-2.39551,3.12793-4.22754,.73291-1.83203,1.09912-3.9873,1.09912-6.46777,0-2.46094-.36621-4.6123-1.09912-6.4541-.73242-1.84082-1.77539-3.25488-3.12793-4.24121-1.35303-.98633-2.94092-1.47949-4.7627-1.47949Z"/>
    <path d="M345.60059,804.0459c0-3.23145,.53564-6.06836,1.60645-8.51074s2.58301-4.33105,4.53711-5.66504,4.2085-2.00098,6.76416-2.00098c2.3291,0,4.33008,.46094,6.00244,1.38086,1.67236,.9209,3.04395,2.31152,4.11475,4.1709v-4.79102h5.18555v27.64746c0,5.37305-1.19336,9.37012-3.5791,11.99121-2.38623,2.62109-6.04053,3.93164-10.96289,3.93164-3.58887,0-6.87646-.55469-9.86377-1.66309v-5.04492c2.94922,1.61621,5.96484,2.42383,9.04639,2.42383,3.40039,0,5.94629-.8877,7.63721-2.66309s2.53662-4.45801,2.53662-8.0459v-2.56445c-1.0708,1.86035-2.44238,3.25098-4.11475,4.1709-1.67236,.9209-3.67334,1.38086-6.00244,1.38086-2.55566,0-4.81006-.66699-6.76416-2.00098s-3.46631-3.22168-4.53711-5.66504c-1.0708-2.44141-1.60645-5.26953-1.60645-8.48242Zm.50732,2.79004c0-.90137,.31006-1.6582,.93018-2.26855,.61963-.61035,1.37109-.91602,2.25439-.91602,.60107,0,1.15527,.15039,1.6626,.45117,0,1.82227,.20654,3.48535,.62012,4.98828-.62012,.62012-1.38086,.92969-2.28271,.92969-.8833,0-1.63477-.30469-2.25439-.91602-.62012-.61035-.93018-1.36621-.93018-2.26855Zm22.51758-2.79004c0-2.49805-.34766-4.63086-1.04297-6.39746-.69531-1.76562-1.70459-3.11426-3.0293-4.04395s-2.91699-1.39551-4.77686-1.39551c-1.8418,0-3.42432,.46582-4.74902,1.39551-1.32422,.92969-2.33447,2.27832-3.0293,4.04395-.69531,1.7666-1.04297,3.89941-1.04297,6.39746v.05664c.46973,.28125,.8457,.66211,1.12744,1.1416,.28174,.47852,.42285,1.00977,.42285,1.5918,0,.88379-.31006,1.63477-.93018,2.25488,.60107,2.17969,1.60156,3.85156,3.00146,5.0166,1.39941,1.16504,3.13281,1.74707,5.19971,1.74707,1.85986,0,3.45215-.46484,4.77686-1.39551,1.32471-.92969,2.33398-2.27734,3.0293-4.04395,.69531-1.76562,1.04297-3.88867,1.04297-6.36914Z"/>
    <path d="M381.64258,821.40625c0-.90234,.31006-1.6582,.93018-2.26855,.61963-.61035,1.37109-.91602,2.25439-.91602,.88281,0,1.63916,.30566,2.26855,.91602s.94434,1.36621,.94434,2.26855c0,.90137-.31494,1.6582-.94434,2.26855s-1.38574,.91602-2.26855,.91602c-.8833,0-1.63477-.30566-2.25439-.91602-.62012-.61035-.93018-1.36719-.93018-2.26855Zm.479-16.96582c0-3.43848,.57764-6.40137,1.7334-8.8916,1.15527-2.48926,2.81787-4.3916,4.98828-5.70703,2.16992-1.31445,4.75781-1.97266,7.76416-1.97266,2.9873,0,5.57031,.66211,7.75,1.9873,2.1792,1.32422,3.84668,3.22656,5.00244,5.70703,1.15527,2.47949,1.73291,5.43848,1.73291,8.87695,0,3.41992-.57764,6.37402-1.73291,8.86328-1.15576,2.49023-2.82324,4.39648-5.00244,5.7207-2.17969,1.3252-4.7627,1.9873-7.75,1.9873s-5.5708-.66211-7.75049-1.9873c-2.17969-1.32422-3.84668-3.23047-5.00195-5.7207-1.15576-2.48926-1.7334-5.44336-1.7334-8.86328Zm14.48584-12.1748c-1.8418,0-3.43848,.48926-4.79102,1.46582-1.35303,.97656-2.39551,2.38086-3.12842,4.21289s-1.09912,3.99805-1.09912,6.49609c0,2.49902,.36182,4.66406,1.08496,6.49609s1.76172,3.23633,3.11426,4.21289c1.35254,.97754,2.95898,1.46582,4.81934,1.46582,1.82178,0,3.40967-.49316,4.7627-1.47949,1.35254-.98633,2.39551-2.39551,3.12793-4.22754,.73291-1.83203,1.09912-3.9873,1.09912-6.46777,0-2.46094-.36621-4.6123-1.09912-6.4541-.73242-1.84082-1.77539-3.25488-3.12793-4.24121-1.35303-.98633-2.94092-1.47949-4.7627-1.47949Z"/>
    <path d="M437.60742,820.19434v-43.85156h5.21387v17.07812c1.08936-1.87793,2.46582-3.27344,4.12891-4.18457,1.6626-.91113,3.64941-1.36719,5.96045-1.36719,2.53613,0,4.78125,.69043,6.73535,2.07129s3.47559,3.32617,4.56543,5.83398,1.63477,5.39648,1.63477,8.66602-.54492,6.1582-1.63477,8.66602-2.61133,4.45312-4.56543,5.83398-4.19922,2.07129-6.73535,2.07129c-2.31104,0-4.29785-.45605-5.96045-1.36719-1.66309-.91113-3.03955-2.30566-4.12891-4.18457v4.73438h-5.21387Zm22.85596-15.75391c0-2.53613-.35205-4.7207-1.05664-6.55273-.70459-1.83105-1.71924-3.23535-3.04395-4.21289-1.32471-.97656-2.89844-1.46582-4.72021-1.46582-1.82275,0-3.396,.48926-4.7207,1.46582-1.32471,.97754-2.33936,2.38184-3.04395,4.21289-.7041,1.83203-1.05664,4.0166-1.05664,6.55273s.35254,4.7207,1.05664,6.55273c.70459,1.83105,1.71924,3.23633,3.04395,4.21289,1.32471,.97754,2.89795,1.46582,4.7207,1.46582,1.82178,0,3.39551-.48828,4.72021-1.46582,1.32471-.97656,2.33936-2.38184,3.04395-4.21289,.70459-1.83203,1.05664-4.0166,1.05664-6.55273Z"/>
    <path d="M467.08301,802.1582c0-.90234,.31006-1.6582,.93018-2.26953,.62012-.61035,1.37109-.91602,2.25439-.91602,.88281,0,1.63916,.30566,2.26855,.91602,.62939,.61133,.94434,1.36719,.94434,2.26953,0,.90137-.31494,1.6582-.94434,2.26855s-1.38574,.91602-2.26855,.91602c-.8833,0-1.63428-.30566-2.25439-.91602s-.93018-1.36719-.93018-2.26855Zm5.27002,8.84863c0-3.55078,1.18799-6.22852,3.56494-8.03223s5.92285-2.70508,10.63916-2.70508h7.271v-.50684c0-2.38672-.78467-4.23242-2.35352-5.53809s-3.77197-1.95898-6.6084-1.95898c-3.62646,0-7.02734,.86426-10.20215,2.59277v-4.79102c3.81396-1.46484,7.39307-2.19824,10.7373-2.19824,4.56543,0,7.97559,1.18359,10.23047,3.55078,2.25439,2.36816,3.38184,5.95605,3.38184,10.76562v18.00879h-5.18555v-4.79102c-1.18359,1.91602-2.65918,3.33008-4.4248,4.24121-1.76611,.91113-3.92676,1.36719-6.48193,1.36719-2.12305,0-3.9834-.40918-5.58008-1.22559-1.59717-.81738-2.82764-1.98242-3.69189-3.49512-.86426-1.51172-1.29639-3.27344-1.29639-5.28418Zm16.31738-6.67871c-2.81787,0-5.03027,.20703-6.63672,.62012s-2.75732,1.0752-3.45215,1.98633c-.69531,.91113-1.04297,2.15625-1.04297,3.73438,0,1.8418,.60596,3.30176,1.81787,4.38184,1.21191,1.08105,2.86035,1.62109,4.9458,1.62109,1.89746,0,3.56543-.46094,5.00244-1.38086,1.4375-.9209,2.55029-2.22656,3.33984-3.91797,.78906-1.69043,1.18359-3.65332,1.18359-5.88965v-1.15527h-5.15771Zm-5.55176-3.86133c0-.01855,.00928-.02832,.02832-.02832l-.02832,.02832Zm.02832-.02832h.02832c0,.01953-.00488,.02832-.01416,.02832-.00977,0-.01416-.00879-.01416-.02832Zm9.04639-14.03418c0-.90234,.31006-1.6582,.93018-2.26953,.62012-.61035,1.37109-.91504,2.25439-.91504,.88281,0,1.63916,.30469,2.26855,.91504,.62939,.61133,.94434,1.36719,.94434,2.26953,0,.90137-.31494,1.6582-.94434,2.26855s-1.38574,.91602-2.26855,.91602c-.8833,0-1.63428-.30566-2.25439-.91602s-.93018-1.36719-.93018-2.26855Z"/>
    <path d="M532.29395,789.8418v4.84766c-2.94922-1.61523-5.9082-2.42383-8.87695-2.42383-2.23633,0-4.14746,.47949-5.73535,1.4375s-2.7998,2.34863-3.63477,4.1709c-.83691,1.82227-1.25488,4.01172-1.25488,6.56641,0,1.69141,.1875,3.24121,.56445,4.65039,.2627,.95801,.60059,1.81348,1.01367,2.56445-.31934-.28223-.56836-.62988-.74609-1.04297-.17871-.41309-.26758-.8457-.26758-1.2959v-.22559c.05566-.8457,.38965-1.55078,1-2.11426s1.33887-.84473,2.18457-.84473c.88281,0,1.63867,.30566,2.26855,.91504,.62891,.61133,.94336,1.36719,.94336,2.26953,0,.90137-.31445,1.6582-.94336,2.26855-.62988,.61035-1.38574,.91602-2.26855,.91602-.8457,0-1.56934-.28223-2.1709-.8457,.86426,1.61621,2.0625,2.84668,3.59375,3.69141,1.53125,.8457,3.34863,1.26855,5.45312,1.26855,2.96875,0,5.92773-.80762,8.87695-2.42383v4.79102c-2.89258,1.35254-6.04004,2.0293-9.44043,2.0293-3.1377,0-5.87598-.67676-8.21484-2.0293-2.33984-1.35254-4.14355-3.27832-5.41162-5.77734-1.26807-2.49805-1.90234-5.41992-1.90234-8.76465,0-3.40039,.63867-6.3457,1.9165-8.83496,1.27734-2.48926,3.10938-4.40137,5.49609-5.73535,2.38574-1.33398,5.20312-2.00098,8.4541-2.00098,3.25,0,6.28516,.6582,9.10254,1.97266Zm6.67969,1.74805v0Z"/>
    <path d="M541,776.34277h5.21387v25.89941l15.47168-13.6123h6.62402l-16.74121,14.76758,6.14355,5.91895c-.41309-.15039-.77539-.38086-1.08496-.69043-.30957-.31055-.5498-.66309-.71875-1.05762s-.25391-.80762-.25391-1.23926c0-.88379,.30566-1.63965,.91602-2.26953,.61035-.62891,1.36719-.94336,2.26855-.94336,.90234,0,1.6582,.31445,2.26953,.94336,.61035,.62988,.91504,1.38574,.91504,2.26953,0,.88281-.30469,1.63379-.91504,2.25391-.61133,.62012-1.36719,.93066-2.26953,.93066-.35645,0-.73242-.06641-1.12695-.19727l11.30078,10.87793h-6.76367l-16.03516-15.41602v15.41602h-5.21387v-43.85156Zm78.31934,43.54199h0Z"/>
    <path d="M545.72949,806.15918h0Zm52.1377-26.49121v8.96191h10.68066v4.03027h-10.68066v17.13477c0,1.74707,.14551,3.04395,.43652,3.88965,.29102,.84473,.80762,1.41895,1.5498,1.71875,.74219,.30078,1.86523,.45117,3.36816,.45117h5.32617v4.33984h-5.32617c-2.72461,0-4.83789-.31934-6.34082-.95801-1.50391-.63867-2.58398-1.70508-3.24121-3.19922-.65723-1.49316-.98633-3.57422-.98633-6.24219v-17.13477h-3.80469v-4.03027h3.80469v-8.96191h5.21387Zm12.42871,11.18848c0-.88281,.30469-1.63867,.91602-2.26855,.60938-.62891,1.36621-.94434,2.26855-.94434,.90137,0,1.65723,.31543,2.26855,.94434,.61035,.62988,.91602,1.38574,.91602,2.26855,0,.88379-.30566,1.63477-.91602,2.25488-.61133,.62012-1.36719,.92969-2.26855,.92969-.90234,0-1.65918-.30957-2.26855-.92969-.61133-.62012-.91602-1.37109-.91602-2.25488Zm55.74414,3.21289h0Z"/>
    <path d="M612.51855,821.40625c0-.90234,.31055-1.6582,.93066-2.26855s1.37109-.91602,2.25391-.91602c.88379,0,1.63965,.30566,2.26953,.91602,.62891,.61035,.94336,1.36621,.94336,2.26855,0,.90137-.31445,1.6582-.94336,2.26855-.62988,.61035-1.38574,.91602-2.26953,.91602-.88281,0-1.63379-.30566-2.25391-.91602s-.93066-1.36719-.93066-2.26855Zm.47949-16.96582c0-3.43848,.57812-6.40137,1.7334-8.8916,1.15527-2.48926,2.81836-4.3916,4.98828-5.70703,2.16992-1.31445,4.75781-1.97266,7.76367-1.97266,2.9873,0,5.57031,.66211,7.75,1.9873,2.17969,1.32422,3.84766,3.22656,5.00293,5.70703,1.15527,2.47949,1.7334,5.43848,1.7334,8.87695,0,3.41992-.57812,6.37402-1.7334,8.86328-1.15527,2.49023-2.82324,4.39648-5.00293,5.7207-2.17969,1.3252-4.7627,1.9873-7.75,1.9873s-5.57031-.66211-7.75-1.9873c-2.17969-1.32422-3.84668-3.23047-5.00195-5.7207-1.15527-2.48926-1.7334-5.44336-1.7334-8.86328Zm14.48535-12.1748c-1.84082,0-3.4375,.48926-4.79102,1.46582-1.35254,.97656-2.39551,2.38086-3.12793,4.21289s-1.09863,3.99805-1.09863,6.49609c0,2.49902,.36133,4.66406,1.08496,6.49609,.72266,1.83203,1.76074,3.23633,3.11426,4.21289,1.35254,.97754,2.95898,1.46582,4.81836,1.46582,1.82227,0,3.41016-.49316,4.7627-1.47949,1.35352-.98633,2.39551-2.39551,3.12891-4.22754,.73242-1.83203,1.09863-3.9873,1.09863-6.46777,0-2.46094-.36621-4.6123-1.09863-6.4541-.7334-1.84082-1.77539-3.25488-3.12891-4.24121-1.35254-.98633-2.94043-1.47949-4.7627-1.47949Z"/>
    <path d="M688.80273,789.56055v4.90332c-2.9502-1.50293-6.10645-2.25488-9.46973-2.25488-5.14746,0-7.72168,1.5791-7.72168,4.73535,0,1.20215,.45996,2.1416,1.38086,2.81836,.91992,.69531,2.77148,1.35254,5.55176,1.97266l1.77539,.39453c2.48047,.52539,4.45703,1.18848,5.93262,1.98633,1.47461,.79883,2.55078,1.79004,3.22656,2.97363,.67676,1.18359,1.01465,2.64844,1.01465,4.39648,0,.37598-.00977,.65723-.02832,.84473-.16895,1.91699-.86426,3.54199-2.08496,4.87598-.33789-.54492-.50781-1.12695-.50781-1.74707,0-.78906,.24414-1.46973,.7334-2.04297,.48828-.57324,1.1084-.93457,1.85938-1.08594,.26367-.03711,.46094-.05566,.5918-.05566,.88379,0,1.63965,.30566,2.26953,.91602,.62891,.61035,.94336,1.36621,.94336,2.26855,0,.90137-.31445,1.6582-.94336,2.26855-.62988,.61035-1.38574,.91602-2.26953,.91602-.56348,0-1.08008-.12695-1.5498-.38086s-.8457-.60547-1.12695-1.05664c-1.08984,1.22168-2.56934,2.16113-4.43848,2.81836-1.87012,.65723-4.03516,.98633-6.49609,.98633-3.36328,0-7.05566-.6582-11.07617-1.97266v-5.35449c3.81445,1.99121,7.54297,2.9873,11.18848,2.9873,2.42383,0,4.29785-.41797,5.62207-1.25488,1.3252-.83496,1.9873-2.01465,1.9873-3.53613,0-1.39062-.46973-2.4707-1.40918-3.24121-.9209-.73242-3.00586-1.45605-6.25684-2.16992l-1.80371-.42285c-3.21191-.67676-5.5332-1.71387-6.96094-3.11426-1.42773-1.39941-2.1416-3.32031-2.1416-5.7627,0-2.96875,1.05176-5.26074,3.15625-6.87695,2.10449-1.61523,5.0918-2.42383,8.96191-2.42383,3.88965,0,7.25195,.56348,10.08984,1.69141Zm18.34668,47.14844v0Z"/>
    <path d="M698.63574,776.34277h5.18555v43.85156h-5.18555v-43.85156Zm6.96094,.14062c0-.71387,.24902-1.31445,.74707-1.80371,.49707-.48828,1.10352-.73242,1.81738-.73242,.69434,0,1.29102,.24414,1.78906,.73242,.49805,.48926,.74707,1.08984,.74707,1.80371,0,.71484-.24902,1.31543-.74707,1.80371-.49805,.48926-1.09473,.7334-1.78906,.7334-.71387,0-1.32031-.24414-1.81738-.7334-.49805-.48828-.74707-1.08887-.74707-1.80371Zm9.24316-3.07129v0Zm19.44629-9.58203v0Z"/>
    <path d="M741.55469,803.11621v2.53613h-23.8418c.22559,3.57031,1.30078,6.28906,3.22656,8.15918,1.92578,1.86914,4.6084,2.80371,8.0459,2.80371,3.87012,0,7.65625-.97656,11.35742-2.93066v4.90332c-3.81445,1.61523-7.70312,2.42383-11.66699,2.42383-3.3252,0-6.21875-.66211-8.68066-1.9873-2.46094-1.32422-4.3584-3.21289-5.69238-5.66406-1.33398-2.45215-2.00098-5.33105-2.00098-8.6377,0-3.41992,.62891-6.39746,1.88867-8.93457,1.25781-2.53613,3.05273-4.49023,5.38281-5.86133,2.3291-1.37109,5.0625-2.05762,8.2002-2.05762,2.7998,0,5.2373,.62012,7.31348,1.86035s3.67285,3.00586,4.79102,5.29785c1.11816,2.29297,1.67676,4.98828,1.67676,8.08887Zm-23.67285-1.49414l18.4873-.02832c-.01855-1.87793-.38477-3.51758-1.09863-4.91699-.71484-1.39941-1.70996-2.48535-2.9873-3.25586-1.27832-.76953-2.76172-1.15527-4.45312-1.15527-2.89355,0-5.20898,.81738-6.94727,2.45215-1.7373,1.63477-2.73828,3.93652-3.00098,6.9043Zm13.33008,23.27832c0-.90137,.31055-1.6582,.92969-2.26855,.62012-.61035,1.37207-.91602,2.25488-.91602s1.63867,.30566,2.26855,.91602,.94434,1.36719,.94434,2.26855c0,.90234-.31445,1.6582-.94434,2.26855s-1.38574,.91602-2.26855,.91602-1.63477-.30566-2.25488-.91602c-.61914-.61035-.92969-1.36621-.92969-2.26855Zm24.49023,32.66309v0Z"/>
    <path d="M776.94922,803.11621v2.53613h-23.8418c.22559,3.57031,1.30078,6.28906,3.22656,8.15918,1.92578,1.86914,4.6084,2.80371,8.0459,2.80371,3.87012,0,7.65625-.97656,11.35742-2.93066v4.90332c-3.81445,1.61523-7.70312,2.42383-11.66699,2.42383-3.3252,0-6.21875-.66211-8.68066-1.9873-2.46094-1.32422-4.3584-3.21289-5.69238-5.66406-1.33398-2.45215-2.00098-5.33105-2.00098-8.6377,0-3.41992,.62891-6.39746,1.88867-8.93457,1.25781-2.53613,3.05273-4.49023,5.38281-5.86133,2.3291-1.37109,5.0625-2.05762,8.2002-2.05762,2.7998,0,5.2373,.62012,7.31348,1.86035s3.67285,3.00586,4.79102,5.29785c1.11816,2.29297,1.67676,4.98828,1.67676,8.08887Zm-23.67285-1.49414l18.4873-.02832c-.01855-1.87793-.38477-3.51758-1.09863-4.91699-.71484-1.39941-1.70996-2.48535-2.9873-3.25586-1.27832-.76953-2.76172-1.15527-4.45312-1.15527-2.89355,0-5.20898,.81738-6.94727,2.45215-1.7373,1.63477-2.73828,3.93652-3.00098,6.9043Zm13.33008,23.27832c0-.90137,.31055-1.6582,.92969-2.26855,.62012-.61035,1.37207-.91602,2.25488-.91602s1.63867,.30566,2.26855,.91602,.94434,1.36719,.94434,2.26855c0,.90234-.31445,1.6582-.94434,2.26855s-1.38574,.91602-2.26855,.91602-1.63477-.30566-2.25488-.91602c-.61914-.61035-.92969-1.36621-.92969-2.26855Zm24.49023,32.66309v0Z"/>
    <path d="M784.92188,837.55469c0-.90234,.30957-1.6582,.92969-2.26855,.62012-.61133,1.37109-.91602,2.25488-.91602,.88281,0,1.63867,.30469,2.26855,.91602,.62891,.61035,.94434,1.36621,.94434,2.26855,0,.90137-.31543,1.6582-.94434,2.26855-.62988,.61035-1.38574,.91602-2.26855,.91602-.88379,0-1.63477-.30566-2.25488-.91602s-.92969-1.36719-.92969-2.26855Zm5.43945-22.09473v16.74023h-5.21387v-43.57031h5.21387v4.79102c1.08887-1.87793,2.46582-3.27344,4.12793-4.18457,1.66309-.91113,3.65039-1.36719,5.96094-1.36719,2.53613,0,4.78125,.69043,6.73535,2.07129s3.47559,3.32617,4.56543,5.83398,1.63477,5.39648,1.63477,8.66602-.54492,6.1582-1.63477,8.66602-2.61133,4.45312-4.56543,5.83398-4.19922,2.07129-6.73535,2.07129c-2.31055,0-4.29785-.45605-5.96094-1.36719-1.66211-.91113-3.03906-2.30566-4.12793-4.18457Zm0-11.01953c0,2.53613,.35156,4.7207,1.05664,6.55273,.7041,1.83105,1.71875,3.23633,3.04297,4.21289,1.3252,.97754,2.89844,1.46582,4.7207,1.46582s3.39648-.48828,4.7207-1.46582c1.32422-.97656,2.33887-2.38184,3.04395-4.21289,.7041-1.83203,1.05664-4.0166,1.05664-6.55273s-.35254-4.7207-1.05664-6.55273c-.70508-1.83105-1.71973-3.23535-3.04395-4.21289-1.32422-.97656-2.89844-1.46582-4.7207-1.46582s-3.39551,.48926-4.7207,1.46582c-1.32422,.97754-2.33887,2.38184-3.04297,4.21289-.70508,1.83203-1.05664,4.0166-1.05664,6.55273Zm1.35254-2.62109c0-.90137,.30957-1.65723,.92969-2.26855,.62012-.61035,1.37109-.91602,2.25488-.91602,.88281,0,1.63867,.30566,2.26855,.91602,.62891,.61133,.94434,1.36719,.94434,2.26855,0,.90234-.31543,1.6582-.94434,2.26855-.62988,.61133-1.38574,.91602-2.26855,.91602-.88379,0-1.63477-.30469-2.25488-.91602-.62012-.61035-.92969-1.36621-.92969-2.26855Zm10.65234,89.14062v0Zm19.08008-139.95312v0Z"/>
  </g>
</svg>