<?xml version="1.0" encoding="UTF-8"?>
<svg xmlns="http://www.w3.org/2000/svg" viewBox="0 0 1024 588" width="2048" height="1176">
  <defs>
    <style>
      .cls-1 {
        fill: #fff;
      }

      .cls-2 {
        fill: #29abe2;
      }
    </style>
  </defs>
  <g id="Layer_1" data-name="Layer 1"/>
  <g id="Layer_2" data-name="Layer 2">
    <path class="cls-1" d="M1012.91667,253.36894c-.94308-5.13246-2.37328-10.19077-4.38743-15.13334-3.47072-8.5168-8.06805-16.85252-13.10289-24.8613-2.91582-4.63815-6.28364-9.10015-10.02776-13.35865-10.37681-11.80236-22.10773-23.22341-35.95002-32.67569-13.69923-9.35456-28.61094-18.17691-44.63926-24.99759-7.39029-3.14487-14.86012-5.99466-22.48982-8.39424-.80959-4.50324-1.85792-8.96293-3.02952-13.32546-1.19303-4.44225-2.79836-8.81744-4.79043-13.08085-3.73168-7.98646-7.93834-15.97459-13.04628-23.49967-2.71626-4.00162-5.80132-7.85149-9.23685-11.4998-6.36944-6.76394-12.87094-13.67865-20.48147-19.66276-7.46751-5.87167-16.14511-10.85724-24.62265-15.7515-4.64562-2.68201-9.58372-5.05731-14.75433-7.06902-9.70662-3.77645-19.90105-7.23187-30.32551-9.65025-10.42769-2.4192-21.36141-3.29173-32.10867-4.32001-16.84015-1.61127-33.60506,.09749-50.25224,2.38125-16.40747,2.25091-32.28554,7.43584-47.14021,13.12187-3.36738,1.28895-6.65445,2.70449-9.85296,4.23331-6.5038-4.42125-13.5675-8.39757-20.6116-12.00724-3.81325-1.95404-7.80515-3.69653-11.93707-5.20361-8.68776-3.16873-17.63789-6.30438-26.84247-8.48821-13.59164-3.22467-28.41452-4.8526-42.60291-4.60081-13.87403,.24625-28.53935,1.79138-41.7887,5.29324-13.04922,3.44896-26.27276,7.78372-37.75681,13.84945-11.13383,5.88075-22.33918,12.58955-31.46123,20.45737-3.25494-1.39447-6.5871-2.67801-9.99112-3.83485-8.01435-2.72363-16.26896-5.735-24.75796-7.656-9.08723-2.05638-18.83298-2.80526-28.11552-3.64187-12.8917-1.16192-27.00621-.06878-39.25537,3.10355-16.52236,4.27899-33.10279,11.1211-44.45076,21.73576-2.55466-.17383-5.10374-.32334-7.64191-.4496-18.55506-.92301-37.38835,.88945-55.58696,3.55945-6.12828,.89911-12.19871,2.09506-18.04904,3.79345-10.22266,2.96774-21.37311,6.17257-30.41756,11.20507-6.15041,3.4222-12.4041,6.96482-17.92032,11.01194-5.7678,4.23174-10.46932,9.56065-15.09123,14.47779-6.44942,6.86131-10.47273,15.12951-14.18154,23.03323-3.97419,8.46923-5.11179,18.00303-6.17719,26.84031-.50423,4.18271-.38464,8.35511,.05541,12.51617-18.16182,5.78602-33.45831,12.14452-47.84955,23.14929-15.07498,11.52761-23.64486,24.66437-31.19581,39.74298-5.71924,11.42083-7.48948,24.32038-8.66776,36.39103-1.24918,12.79647,.75131,25.30872,3.15805,37.97006,4.58605,24.12631,19.32761,47.72749,41.19569,65.18037,9.5216,7.59919,19.95578,13.46606,31.32987,18.26787-.41599,11.75751,1.47357,23.46804,4.06887,35.07717,2.80896,12.56484,9.13049,24.69189,16.35018,36.05367,6.74106,10.60862,16.34405,20.37996,26.53357,29.05956,10.40895,8.86655,23.22086,16.75274,36.7374,22.48673,8.44233,3.58135,17.44903,6.45408,26.4815,8.96983,11.0525,3.07834,22.86241,3.99646,34.42827,5.09688,12.90672,1.22798,25.69694,.79059,38.57007-.49325,17.28606-1.72397,34.35114-3.67102,51.1531-7.32422,7.08937-1.54142,14.07115-3.34622,20.97149-5.33019,4.52936,5.15592,9.64438,10.0579,14.76257,14.75085,4.01604,3.68237,8.45149,7.08295,13.209,10.17773,8.59626,5.59185,17.55487,11.18075,27.20785,15.67249,9.5513,4.44444,20.00738,7.65509,30.27397,10.89642,6.20062,1.95765,12.61184,3.42272,19.14756,4.51866,20.21865,3.39035,41.34449,5.06244,62.02897,4.09371,21.19328-.99258,42.46657-3.61211,63.17835-7.26518,31.4603-5.54885,62.28031-12.90407,91.48147-23.7224,6.08653-2.25489,12.01723-4.78299,17.6379-7.68852,2.27836-1.17779,4.54816-2.38874,6.79572-3.6341,4.752,2.80796,9.63803,5.472,14.68586,7.89491,9.66434,4.6387,20.40573,7.97682,30.91317,11.18395,5.95391,1.81726,12.12034,3.19556,18.39441,4.14572,11.01807,1.66864,22.36743,2.92633,33.61183,3.24639,6.42402,.18288,12.84059-.0733,19.21865-.68605,11.20648-1.07664,22.5474-2.0363,33.45798-4.41912,16.66278-3.6391,33.46901-9.15706,47.89837-16.69537,9.12641-4.76795,18.02263-10.06471,26.04054-15.9383,8.21188-6.01565,14.95594-13.21153,21.61279-20.251,3.86761-4.08987,7.20802-8.48243,9.99458-13.07782,4.75968-7.84938,9.32787-15.98705,12.39966-24.37447,3.13598-8.5628,4.35801-17.50154,5.7221-26.30953,.78466-5.06665,1.07709-10.16955,.81598-15.27027-.61915-12.09397-3.06078-24.06595-7.32624-35.57571,1.47942-.92786,2.94852-1.8578,4.41046-2.77983,4.7041-2.96684,9.05808-6.23727,13.00987-9.81398,7.10832-6.43363,14.01713-13.28062,19.71903-20.55709,5.89291-7.52021,10.07443-15.81245,14.27381-23.95887,2.2371-4.33974,4.06502-8.79879,5.37986-13.36517,2.50379-8.69565,4.06925-17.71172,4.59458-26.6124,.52272-8.85611-1.38853-17.58934-2.99539-26.33434Z"/>
    <g>
      <path d="M237.41504,429.42578c0-.59033,.20166-1.08594,.60449-1.48535,.40283-.3999,.89111-.59961,1.46533-.59961,.57373,0,1.06494,.19971,1.47412,.59961,.40869,.39941,.61328,.89502,.61328,1.48535s-.20459,1.08545-.61328,1.48535c-.40918,.39941-.90039,.59961-1.47412,.59961-.57422,0-1.0625-.2002-1.46533-.59961-.40283-.3999-.60449-.89502-.60449-1.48535Zm3.53467-14.46631v10.96045h-3.38818v-28.52588h3.38818v3.13672c.70801-1.22998,1.60254-2.14355,2.68311-2.74023s2.37158-.89502,3.87354-.89502c1.64844,0,3.10693,.45215,4.37695,1.35645,1.26953,.90381,2.25879,2.17725,2.9668,3.81934s1.0625,3.53369,1.0625,5.67383c0,2.14062-.35449,4.03174-1.0625,5.67383s-1.69727,2.91553-2.9668,3.81934c-1.27002,.9043-2.72852,1.35645-4.37695,1.35645-1.50195,0-2.79297-.29834-3.87354-.89502s-1.9751-1.50977-2.68311-2.74023Zm0-7.21436c0,1.66064,.229,3.09082,.68701,4.29004,.45752,1.19922,1.11719,2.11914,1.97803,2.7583,.86035,.64014,1.88281,.95947,3.06738,.95947,1.18408,0,2.20703-.31934,3.06787-.95947,.86035-.63916,1.52002-1.55908,1.97754-2.7583,.45801-1.19922,.68701-2.62939,.68701-4.29004s-.229-3.09082-.68701-4.29004c-.45752-1.19922-1.11719-2.11865-1.97754-2.7583-.86084-.63965-1.88379-.95947-3.06787-.95947-1.18457,0-2.20703,.31982-3.06738,.95947-.86084,.63965-1.52051,1.55908-1.97803,2.7583-.45801,1.19922-.68701,2.62939-.68701,4.29004Zm.87939-1.71582c0-.59033,.20117-1.08545,.604-1.48535s.89111-.59961,1.46533-.59961c.57373,0,1.06494,.19971,1.47412,.59961s.61377,.89502,.61377,1.48535-.20459,1.08545-.61377,1.48535-.90039,.59961-1.47412,.59961c-.57422,0-1.0625-.19971-1.46533-.59961s-.604-.89502-.604-1.48535Zm6.92236,58.3623v0Zm12.39893-91.63037v0Z"/>
      <path d="M273.30908,400.56738c-.73242-.43018-1.63623-.64551-2.71045-.64551-1.89258,0-3.34863,.61816-4.36768,1.854-1.02002,1.23633-1.53564,3.01123-1.54785,5.32324v2.69434c-.31738-.40625-.47607-.85498-.47607-1.34717,0-.50439,.15869-.95312,.47607-1.34717,.19531-.2334,.43066-.41504,.70508-.54395,.2749-.12939,.5708-.19385,.88818-.19385,.57373,0,1.06543,.2002,1.47461,.59961,.40869,.3999,.61328,.89502,.61328,1.48535s-.20459,1.08594-.61328,1.48535c-.40918,.3999-.90088,.59961-1.47461,.59961-.31738,0-.61328-.06445-.88818-.19385-.27441-.12891-.50977-.31006-.70508-.54395v8.26611h-3.38818v-20.66553h3.38818v3.21045c.70801-1.25488,1.62988-2.18652,2.76562-2.79541,1.13525-.60889,2.51514-.91357,4.13867-.91357,.48828,0,1.05615,.06201,1.70361,.18457l.01807,3.4873Zm7.98486,.55371v0Z"/>
      <path d="M293.48975,406.87793v1.66064h-15.49365c.14648,2.3374,.84521,4.11768,2.09668,5.3418s2.99463,1.83594,5.229,1.83594c2.51465,0,4.9751-.63965,7.38037-1.91895v3.21045c-2.47852,1.05762-5.00586,1.58691-7.58203,1.58691-2.16113,0-4.0415-.43359-5.64062-1.30078-1.59961-.86719-2.83252-2.10352-3.69971-3.70898-.8667-1.60498-1.30029-3.49023-1.30029-5.65527,0-2.23877,.40918-4.18848,1.22705-5.84912s1.98389-2.93994,3.49805-3.83789c1.51367-.89795,3.29053-1.34717,5.32959-1.34717,1.81885,0,3.40332,.40625,4.75244,1.21777,1.34912,.81201,2.38672,1.96826,3.11328,3.46924s1.08984,3.26562,1.08984,5.29541Zm-15.38379-.97803l12.01416-.01855c-.0127-1.22949-.25049-2.30322-.71436-3.21973-.46436-.91602-1.11133-1.62646-1.94141-2.13086-.83057-.50439-1.79492-.75684-2.89355-.75684-1.88037,0-3.38525,.53516-4.51465,1.60547s-1.7793,2.57715-1.9502,4.52051Zm8.6626,15.24121c0-.59082,.20117-1.08594,.60449-1.48535,.40283-.3999,.89062-.59961,1.46484-.59961,.57373,0,1.06494,.19971,1.47412,.59961,.40918,.39941,.61377,.89453,.61377,1.48535,0,.59033-.20459,1.08545-.61377,1.48535-.40918,.39941-.90039,.59961-1.47412,.59961-.57422,0-1.06201-.2002-1.46484-.59961-.40332-.3999-.60449-.89502-.60449-1.48535Zm15.91504,21.38525v0Z"/>
      <path d="M312.02148,398.00293v3.21045c-1.91699-.98389-3.96826-1.47607-6.15332-1.47607-3.3457,0-5.01807,1.0332-5.01807,3.09961,0,.7876,.29883,1.40234,.89746,1.84521,.59766,.45508,1.80078,.88574,3.60742,1.2915l1.15381,.2583c1.61182,.34473,2.89648,.77832,3.85547,1.30127,.95801,.52295,1.65723,1.17139,2.09668,1.94629,.43994,.7749,.65967,1.73438,.65967,2.87842,0,.24658-.00635,.43066-.01855,.55371-.10986,1.25488-.56152,2.31885-1.35498,3.19189-.22021-.35645-.33008-.73779-.33008-1.14404,0-.5166,.15869-.96191,.47656-1.3374,.31738-.375,.72021-.61182,1.2085-.71045,.1709-.02441,.29932-.03711,.38477-.03711,.57373,0,1.06494,.2002,1.47412,.6001,.40918,.39941,.61377,.89453,.61377,1.48486,0,.59082-.20459,1.08594-.61377,1.48535-.40918,.3999-.90039,.6001-1.47412,.6001-.36621,0-.70215-.08301-1.00732-.24951-.30518-.16602-.54932-.39648-.73242-.69189-.7085,.7998-1.66992,1.41504-2.88477,1.84521-1.21484,.43066-2.62207,.646-4.22119,.646-2.18604,0-4.58496-.43066-7.19775-1.2915v-3.50586c2.47852,1.30371,4.90186,1.95557,7.271,1.95557,1.57471,0,2.79297-.27344,3.65332-.8208,.86084-.54736,1.2915-1.31934,1.2915-2.31592,0-.91016-.30566-1.61719-.91602-2.12158-.59814-.47998-1.95361-.95312-4.06543-1.4209l-1.17236-.27686c-2.08789-.44287-3.5957-1.12256-4.52344-2.03906-.92822-.91602-1.39209-2.17383-1.39209-3.77295,0-1.94385,.68359-3.44434,2.05127-4.50244,1.36719-1.05762,3.30859-1.58691,5.82422-1.58691,2.52734,0,4.7124,.36914,6.55615,1.10742Zm11.92236,30.86914v0Z"/>
      <path d="M331.4873,398.00293v3.21045c-1.91699-.98389-3.96826-1.47607-6.15332-1.47607-3.3457,0-5.01807,1.0332-5.01807,3.09961,0,.7876,.29883,1.40234,.89746,1.84521,.59766,.45508,1.80078,.88574,3.60742,1.2915l1.15381,.2583c1.61182,.34473,2.89648,.77832,3.85547,1.30127,.95801,.52295,1.65723,1.17139,2.09668,1.94629,.43994,.7749,.65967,1.73438,.65967,2.87842,0,.24658-.00635,.43066-.01855,.55371-.10986,1.25488-.56152,2.31885-1.35498,3.19189-.22021-.35645-.33008-.73779-.33008-1.14404,0-.5166,.15869-.96191,.47656-1.3374,.31738-.375,.72021-.61182,1.2085-.71045,.1709-.02441,.29932-.03711,.38477-.03711,.57373,0,1.06494,.2002,1.47412,.6001,.40918,.39941,.61377,.89453,.61377,1.48486,0,.59082-.20459,1.08594-.61377,1.48535-.40918,.3999-.90039,.6001-1.47412,.6001-.36621,0-.70215-.08301-1.00732-.24951-.30518-.16602-.54932-.39648-.73242-.69189-.7085,.7998-1.66992,1.41504-2.88477,1.84521-1.21484,.43066-2.62207,.646-4.22119,.646-2.18604,0-4.58496-.43066-7.19775-1.2915v-3.50586c2.47852,1.30371,4.90186,1.95557,7.271,1.95557,1.57471,0,2.79297-.27344,3.65332-.8208,.86084-.54736,1.2915-1.31934,1.2915-2.31592,0-.91016-.30566-1.61719-.91602-2.12158-.59814-.47998-1.95361-.95312-4.06543-1.4209l-1.17236-.27686c-2.08789-.44287-3.5957-1.12256-4.52344-2.03906-.92822-.91602-1.39209-2.17383-1.39209-3.77295,0-1.94385,.68359-3.44434,2.05127-4.50244,1.36719-1.05762,3.30859-1.58691,5.82422-1.58691,2.52734,0,4.7124,.36914,6.55615,1.10742Zm11.92236,30.86914v0Z"/>
      <path d="M362.80078,398.00293v3.21045c-1.91699-.98389-3.96826-1.47607-6.15332-1.47607-3.3457,0-5.01807,1.0332-5.01807,3.09961,0,.7876,.29883,1.40234,.89746,1.84521,.59766,.45508,1.80078,.88574,3.60742,1.2915l1.15381,.2583c1.61182,.34473,2.89648,.77832,3.85547,1.30127,.95801,.52295,1.65723,1.17139,2.09668,1.94629,.43994,.7749,.65967,1.73438,.65967,2.87842,0,.24658-.00635,.43066-.01855,.55371-.10986,1.25488-.56152,2.31885-1.35498,3.19189-.22021-.35645-.33008-.73779-.33008-1.14404,0-.5166,.15869-.96191,.47656-1.3374,.31738-.375,.72021-.61182,1.2085-.71045,.1709-.02441,.29932-.03711,.38477-.03711,.57373,0,1.06494,.2002,1.47412,.6001,.40918,.39941,.61377,.89453,.61377,1.48486,0,.59082-.20459,1.08594-.61377,1.48535-.40918,.3999-.90039,.6001-1.47412,.6001-.36621,0-.70215-.08301-1.00732-.24951-.30518-.16602-.54932-.39648-.73242-.69189-.7085,.7998-1.66992,1.41504-2.88477,1.84521-1.21484,.43066-2.62207,.646-4.22119,.646-2.18604,0-4.58496-.43066-7.19775-1.2915v-3.50586c2.47852,1.30371,4.90186,1.95557,7.271,1.95557,1.57471,0,2.79297-.27344,3.65332-.8208,.86084-.54736,1.2915-1.31934,1.2915-2.31592,0-.91016-.30566-1.61719-.91602-2.12158-.59814-.47998-1.95361-.95312-4.06543-1.4209l-1.17236-.27686c-2.08789-.44287-3.5957-1.12256-4.52344-2.03906-.92822-.91602-1.39209-2.17383-1.39209-3.77295,0-1.94385,.68359-3.44434,2.05127-4.50244,1.36719-1.05762,3.30859-1.58691,5.82422-1.58691,2.52734,0,4.7124,.36914,6.55615,1.10742Zm11.92236,30.86914v0Z"/>
      <path d="M368.91602,429.42578c0-.59033,.20166-1.08594,.60449-1.48535,.40283-.3999,.89111-.59961,1.46533-.59961,.57373,0,1.06494,.19971,1.47412,.59961,.40869,.39941,.61328,.89502,.61328,1.48535s-.20459,1.08545-.61328,1.48535c-.40918,.39941-.90039,.59961-1.47412,.59961-.57422,0-1.0625-.2002-1.46533-.59961-.40283-.3999-.60449-.89502-.60449-1.48535Zm3.53467-14.46631v10.96045h-3.38818v-28.52588h3.38818v3.13672c.70801-1.22998,1.60254-2.14355,2.68311-2.74023s2.37158-.89502,3.87354-.89502c1.64844,0,3.10693,.45215,4.37695,1.35645,1.26953,.90381,2.25879,2.17725,2.9668,3.81934s1.0625,3.53369,1.0625,5.67383c0,2.14062-.35449,4.03174-1.0625,5.67383s-1.69727,2.91553-2.9668,3.81934c-1.27002,.9043-2.72852,1.35645-4.37695,1.35645-1.50195,0-2.79297-.29834-3.87354-.89502s-1.9751-1.50977-2.68311-2.74023Zm0-7.21436c0,1.66064,.229,3.09082,.68701,4.29004,.45752,1.19922,1.11719,2.11914,1.97803,2.7583,.86035,.64014,1.88281,.95947,3.06738,.95947,1.18408,0,2.20703-.31934,3.06787-.95947,.86035-.63916,1.52002-1.55908,1.97754-2.7583,.45801-1.19922,.68701-2.62939,.68701-4.29004s-.229-3.09082-.68701-4.29004c-.45752-1.19922-1.11719-2.11865-1.97754-2.7583-.86084-.63965-1.88379-.95947-3.06787-.95947-1.18457,0-2.20703,.31982-3.06738,.95947-.86084,.63965-1.52051,1.55908-1.97803,2.7583-.45801,1.19922-.68701,2.62939-.68701,4.29004Zm.87939-1.71582c0-.59033,.20117-1.08545,.604-1.48535s.89111-.59961,1.46533-.59961c.57373,0,1.06494,.19971,1.47412,.59961s.61377,.89502,.61377,1.48535-.20459,1.08545-.61377,1.48535-.90039,.59961-1.47412,.59961c-.57422,0-1.0625-.19971-1.46533-.59961s-.604-.89502-.604-1.48535Zm6.92236,58.3623v0Zm12.39893-91.63037v0Z"/>
      <path d="M388.21777,406.25049c0-.59033,.20117-1.08545,.604-1.48535,.40283-.39941,.89111-.59961,1.46533-.59961,.57373,0,1.06494,.2002,1.47412,.59961,.40918,.3999,.61377,.89502,.61377,1.48535s-.20459,1.08594-.61377,1.48535c-.40918,.3999-.90039,.59961-1.47412,.59961-.57422,0-1.0625-.19971-1.46533-.59961-.40283-.39941-.604-.89502-.604-1.48535Zm3.42432,5.79395c0-2.3252,.77246-4.07764,2.31689-5.25879,1.54443-1.18066,3.84863-1.77148,6.91357-1.77148h4.7251v-.33203c0-1.56201-.50977-2.77051-1.5293-3.62549s-2.45117-1.28271-4.29443-1.28271c-2.35645,0-4.56689,.56592-6.62988,1.69775v-3.13672c2.47852-.95947,4.8042-1.43945,6.97754-1.43945,2.9668,0,5.18311,.7749,6.64795,2.3252,1.46533,1.5498,2.19775,3.89941,2.19775,7.04834v11.79053h-3.36963v-3.13672c-.76904,1.25488-1.72803,2.18018-2.87549,2.77686s-2.55176,.89502-4.21191,.89502c-1.37988,0-2.58887-.26758-3.62646-.80273s-1.8374-1.29785-2.39893-2.28809c-.56201-.98975-.84277-2.14307-.84277-3.45947Zm10.604-4.37305c-1.83154,0-3.26904,.13525-4.31299,.40576-1.04395,.271-1.79199,.70459-2.24316,1.30078-.45215,.59717-.67773,1.41162-.67773,2.44482,0,1.20605,.39355,2.16211,1.18115,2.86963s1.85889,1.06055,3.21436,1.06055c1.23291,0,2.31641-.30127,3.25049-.90381s1.65723-1.45801,2.17041-2.56494c.5127-1.10693,.76904-2.39209,.76904-3.85645v-.75635h-3.35156Zm-3.60791-2.52783c0-.01221,.00635-.01855,.01855-.01855l-.01855,.01855Zm.01855-.01855h.01807c0,.01221-.00293,.01855-.00928,.01855-.00586,0-.00879-.00635-.00879-.01855Zm5.87891-9.18896c0-.59033,.20117-1.08545,.604-1.48535,.40283-.39941,.89111-.59961,1.46533-.59961,.57373,0,1.06494,.2002,1.47412,.59961,.40918,.3999,.61377,.89502,.61377,1.48535,0,.59082-.20459,1.08594-.61377,1.48535-.40918,.3999-.90039,.59961-1.47412,.59961-.57422,0-1.0625-.19971-1.46533-.59961-.40283-.39941-.604-.89453-.604-1.48535Z"/>
      <path d="M430.59473,398.1875v3.17334c-1.91699-1.05762-3.83984-1.58691-5.76904-1.58691-1.45312,0-2.69531,.31396-3.72705,.94141-1.03174,.62695-1.81934,1.5376-2.3623,2.73047-.54346,1.19336-.81494,2.62646-.81494,4.29932,0,1.10693,.12158,2.12207,.36621,3.04443,.1709,.62744,.39062,1.1875,.65918,1.6792-.20752-.18457-.36914-.41211-.48535-.68262s-.17383-.55371-.17383-.84863v-.14795c.03662-.55322,.25342-1.01465,.6499-1.38379,.39697-.36914,.87012-.55371,1.41943-.55371,.57373,0,1.06543,.2002,1.47461,.6001,.40869,.3999,.61328,.89453,.61328,1.48535,0,.59033-.20459,1.08545-.61328,1.48535-.40918,.39941-.90088,.59961-1.47461,.59961-.54932,0-1.01953-.18457-1.41016-.55371,.56152,1.05811,1.33984,1.86377,2.33496,2.41699,.99512,.55371,2.17627,.83057,3.54395,.83057,1.9292,0,3.85205-.52881,5.76904-1.58691v3.13672c-1.88037,.88574-3.92578,1.32861-6.13525,1.32861-2.03906,0-3.81836-.44287-5.33887-1.32861-1.52002-.88574-2.69189-2.14648-3.51611-3.78271-.82422-1.63574-1.23633-3.54834-1.23633-5.73828,0-2.22607,.41504-4.1543,1.24561-5.78467,.83008-1.62939,2.02051-2.88135,3.57129-3.75488,1.55029-.87305,3.38184-1.31006,5.49414-1.31006s4.08398,.43066,5.91553,1.29199Zm4.34033,1.14355v0Z"/>
      <path d="M453.92529,406.87793v1.66064h-15.49365c.14648,2.3374,.84521,4.11768,2.09668,5.3418s2.99463,1.83594,5.229,1.83594c2.51465,0,4.9751-.63965,7.38037-1.91895v3.21045c-2.47852,1.05762-5.00586,1.58691-7.58203,1.58691-2.16113,0-4.0415-.43359-5.64062-1.30078-1.59961-.86719-2.83252-2.10352-3.69971-3.70898-.8667-1.60498-1.30029-3.49023-1.30029-5.65527,0-2.23877,.40918-4.18848,1.22705-5.84912s1.98389-2.93994,3.49805-3.83789c1.51367-.89795,3.29053-1.34717,5.32959-1.34717,1.81885,0,3.40332,.40625,4.75244,1.21777,1.34912,.81201,2.38672,1.96826,3.11328,3.46924s1.08984,3.26562,1.08984,5.29541Zm-15.38379-.97803l12.01416-.01855c-.0127-1.22949-.25049-2.30322-.71436-3.21973-.46436-.91602-1.11133-1.62646-1.94141-2.13086-.83057-.50439-1.79492-.75684-2.89355-.75684-1.88037,0-3.38525,.53516-4.51465,1.60547s-1.7793,2.57715-1.9502,4.52051Zm8.6626,15.24121c0-.59082,.20117-1.08594,.60449-1.48535,.40283-.3999,.89062-.59961,1.46484-.59961,.57373,0,1.06494,.19971,1.47412,.59961,.40918,.39941,.61377,.89453,.61377,1.48535,0,.59033-.20459,1.08545-.61377,1.48535-.40918,.39941-.90039,.59961-1.47412,.59961-.57422,0-1.06201-.2002-1.46484-.59961-.40332-.3999-.60449-.89502-.60449-1.48535Zm15.91504,21.38525v0Z"/>
      <path d="M440.68018,408.87061h0Zm33.88086-17.34424v5.86768h6.94141v2.63818h-6.94141v11.21875c0,1.14404,.09473,1.99268,.28418,2.54639,.18896,.55322,.52441,.92871,1.00732,1.12549,.48193,.19678,1.21143,.29541,2.18848,.29541h3.46143v2.84131h-3.46143c-1.77051,0-3.14404-.20898-4.12109-.62744-.97656-.41797-1.67871-1.11621-2.10596-2.09424s-.64111-2.34033-.64111-4.08691v-11.21875h-2.47217v-2.63818h2.47217v-5.86768h3.38818Zm8.07666,7.3252c0-.57812,.19824-1.07324,.59521-1.48535,.39648-.41211,.88818-.61816,1.47412-.61816,.58643,0,1.07764,.20605,1.47461,.61816,.39648,.41211,.59521,.90723,.59521,1.48535s-.19873,1.07031-.59521,1.47607c-.39697,.40576-.88818,.60889-1.47461,.60889-.58594,0-1.07764-.20312-1.47412-.60889-.39697-.40576-.59521-.89795-.59521-1.47607Zm36.22559,2.10352h0Z"/>
      <path d="M484.08301,418.85303c0-.59033,.20117-1.08545,.604-1.48535,.40332-.39941,.89111-.59961,1.46533-.59961,.57373,0,1.06494,.2002,1.47412,.59961,.40918,.3999,.61377,.89502,.61377,1.48535s-.20459,1.08545-.61377,1.48535c-.40918,.39941-.90039,.59961-1.47412,.59961-.57422,0-1.06201-.2002-1.46533-.59961-.40283-.3999-.604-.89502-.604-1.48535Zm.31104-11.10791c0-2.25098,.37549-4.19141,1.12646-5.82129s1.83154-2.87549,3.2417-3.73633c1.41016-.86133,3.0918-1.29199,5.04541-1.29199,1.94141,0,3.62012,.43359,5.03662,1.30078,1.41602,.86719,2.49951,2.11279,3.25049,3.73682,.75098,1.62354,1.12646,3.56104,1.12646,5.81201,0,2.23926-.37549,4.17334-1.12646,5.80322s-1.83447,2.87842-3.25049,3.74561c-1.4165,.86719-3.09521,1.30078-5.03662,1.30078s-3.62012-.43359-5.03613-1.30078c-1.4165-.86719-2.5-2.11572-3.25098-3.74561s-1.12646-3.56396-1.12646-5.80322Zm9.41357-7.97119c-1.19678,0-2.23438,.32031-3.11328,.95947-.87891,.64014-1.55664,1.55957-2.03271,2.75879-.47656,1.19922-.71436,2.61719-.71436,4.25293,0,1.63623,.23486,3.05371,.70508,4.25293,.46973,1.19971,1.14453,2.11914,2.02344,2.75879,.87939,.63965,1.92334,.95947,3.13184,.95947,1.18408,0,2.21582-.32275,3.09521-.96875,.87891-.646,1.55664-1.56836,2.03271-2.76758,.47607-1.19971,.71436-2.61084,.71436-4.23486,0-1.61133-.23828-3.01953-.71436-4.22559-.47607-1.20508-1.15381-2.13086-2.03271-2.77686-.87939-.64551-1.91113-.96875-3.09521-.96875Z"/>
      <path d="M519.11426,407.48682c0-2.11572,.34814-3.97314,1.04395-5.57227,.69629-1.59912,1.67871-2.83545,2.94873-3.70898,1.26953-.87305,2.73486-1.31006,4.39551-1.31006,1.51367,0,2.81396,.30176,3.90088,.9043,1.08643,.60303,1.97803,1.51318,2.67383,2.73096v-3.13672h3.36963v18.10059c0,3.51807-.77539,6.13525-2.32568,7.85107-1.55078,1.71631-3.92578,2.57422-7.12451,2.57422-2.33203,0-4.46826-.36279-6.40967-1.08887v-3.30273c1.9165,1.05811,3.87598,1.58691,5.87891,1.58691,2.20947,0,3.86426-.58105,4.96289-1.74365,1.09912-1.1626,1.64844-2.91846,1.64844-5.26807v-1.67871c-.6958,1.21777-1.5874,2.12793-2.67383,2.73047-1.08691,.60303-2.38721,.9043-3.90088,.9043-1.66064,0-3.12598-.43652-4.39551-1.31006-1.27002-.87305-2.25244-2.10938-2.94873-3.70898-.6958-1.59863-1.04395-3.4502-1.04395-5.55371Zm.32959,1.82666c0-.59033,.20166-1.08545,.60449-1.48535,.40283-.39941,.89111-.59961,1.46533-.59961,.39062,0,.75098,.09863,1.08057,.29541,0,1.19336,.13428,2.28174,.40283,3.26562-.40283,.40625-.89746,.60889-1.4834,.60889-.57422,0-1.0625-.19971-1.46533-.59961-.40283-.39941-.60449-.89502-.60449-1.48535Zm14.6333-1.82666c0-1.63574-.22607-3.03223-.67773-4.18848s-1.10791-2.03906-1.96875-2.64795-1.89551-.91309-3.104-.91309c-1.19678,0-2.22559,.3042-3.08594,.91309-.86084,.60889-1.51758,1.4917-1.96924,2.64795s-.67725,2.55273-.67725,4.18848v.03711c.30469,.18457,.54932,.43359,.73242,.74707s.2749,.66162,.2749,1.04248c0,.57861-.20166,1.07031-.60449,1.47607,.39062,1.42725,1.04053,2.52197,1.9502,3.28467s2.03613,1.14404,3.37939,1.14404c1.2085,0,2.24316-.30469,3.104-.91357s1.51709-1.49121,1.96875-2.64795c.45166-1.15576,.67773-2.54639,.67773-4.16992Z"/>
      <path d="M542.53662,418.85303c0-.59033,.20117-1.08545,.604-1.48535,.40332-.39941,.89111-.59961,1.46533-.59961,.57373,0,1.06494,.2002,1.47412,.59961,.40918,.3999,.61377,.89502,.61377,1.48535s-.20459,1.08545-.61377,1.48535c-.40918,.39941-.90039,.59961-1.47412,.59961-.57422,0-1.06201-.2002-1.46533-.59961-.40283-.3999-.604-.89502-.604-1.48535Zm.31104-11.10791c0-2.25098,.37549-4.19141,1.12646-5.82129s1.83154-2.87549,3.2417-3.73633c1.41016-.86133,3.0918-1.29199,5.04541-1.29199,1.94141,0,3.62012,.43359,5.03662,1.30078,1.41602,.86719,2.49951,2.11279,3.25049,3.73682,.75098,1.62354,1.12646,3.56104,1.12646,5.81201,0,2.23926-.37549,4.17334-1.12646,5.80322s-1.83447,2.87842-3.25049,3.74561c-1.4165,.86719-3.09521,1.30078-5.03662,1.30078s-3.62012-.43359-5.03613-1.30078c-1.4165-.86719-2.5-2.11572-3.25098-3.74561s-1.12646-3.56396-1.12646-5.80322Zm9.41357-7.97119c-1.19678,0-2.23438,.32031-3.11328,.95947-.87891,.64014-1.55664,1.55957-2.03271,2.75879-.47656,1.19922-.71436,2.61719-.71436,4.25293,0,1.63623,.23486,3.05371,.70508,4.25293,.46973,1.19971,1.14453,2.11914,2.02344,2.75879,.87939,.63965,1.92334,.95947,3.13184,.95947,1.18408,0,2.21582-.32275,3.09521-.96875,.87891-.646,1.55664-1.56836,2.03271-2.76758,.47607-1.19971,.71436-2.61084,.71436-4.23486,0-1.61133-.23828-3.01953-.71436-4.22559-.47607-1.20508-1.15381-2.13086-2.03271-2.77686-.87939-.64551-1.91113-.96875-3.09521-.96875Z"/>
      <path d="M578.90479,418.05957v-28.71045h3.38818v11.18164c.70801-1.22998,1.60254-2.14355,2.68311-2.74023s2.37158-.89502,3.87354-.89502c1.64844,0,3.10693,.45215,4.37695,1.35645,1.26953,.90381,2.25879,2.17725,2.9668,3.81934s1.0625,3.53369,1.0625,5.67383c0,2.14062-.35449,4.03174-1.0625,5.67383s-1.69727,2.91553-2.9668,3.81934c-1.27002,.9043-2.72852,1.35645-4.37695,1.35645-1.50195,0-2.79297-.29834-3.87354-.89502s-1.9751-1.50977-2.68311-2.74023v3.1001h-3.38818Zm14.85303-10.31445c0-1.66064-.229-3.09082-.68701-4.29004-.45752-1.19922-1.11719-2.11865-1.97754-2.7583-.86084-.63965-1.88379-.95947-3.06787-.95947-1.18457,0-2.20703,.31982-3.06738,.95947-.86084,.63965-1.52051,1.55908-1.97803,2.7583-.45801,1.19922-.68701,2.62939-.68701,4.29004s.229,3.09082,.68701,4.29004c.45752,1.19922,1.11719,2.11914,1.97803,2.7583,.86035,.64014,1.88281,.95947,3.06738,.95947,1.18408,0,2.20703-.31934,3.06787-.95947,.86035-.63916,1.52002-1.55908,1.97754-2.7583,.45801-1.19922,.68701-2.62939,.68701-4.29004Z"/>
      <path d="M598.06006,406.25049c0-.59033,.20117-1.08545,.604-1.48535,.40283-.39941,.89111-.59961,1.46533-.59961,.57373,0,1.06494,.2002,1.47412,.59961,.40918,.3999,.61377,.89502,.61377,1.48535s-.20459,1.08594-.61377,1.48535c-.40918,.3999-.90039,.59961-1.47412,.59961-.57422,0-1.0625-.19971-1.46533-.59961-.40283-.39941-.604-.89502-.604-1.48535Zm3.42432,5.79395c0-2.3252,.77246-4.07764,2.31689-5.25879,1.54443-1.18066,3.84863-1.77148,6.91357-1.77148h4.7251v-.33203c0-1.56201-.50977-2.77051-1.5293-3.62549s-2.45117-1.28271-4.29443-1.28271c-2.35645,0-4.56689,.56592-6.62988,1.69775v-3.13672c2.47852-.95947,4.8042-1.43945,6.97754-1.43945,2.9668,0,5.18311,.7749,6.64795,2.3252,1.46533,1.5498,2.19775,3.89941,2.19775,7.04834v11.79053h-3.36963v-3.13672c-.76904,1.25488-1.72803,2.18018-2.87549,2.77686s-2.55176,.89502-4.21191,.89502c-1.37988,0-2.58887-.26758-3.62646-.80273s-1.8374-1.29785-2.39893-2.28809c-.56201-.98975-.84277-2.14307-.84277-3.45947Zm10.604-4.37305c-1.83154,0-3.26904,.13525-4.31299,.40576-1.04395,.271-1.79199,.70459-2.24316,1.30078-.45215,.59717-.67773,1.41162-.67773,2.44482,0,1.20605,.39355,2.16211,1.18115,2.86963s1.85889,1.06055,3.21436,1.06055c1.23291,0,2.31641-.30127,3.25049-.90381s1.65723-1.45801,2.17041-2.56494c.5127-1.10693,.76904-2.39209,.76904-3.85645v-.75635h-3.35156Zm-3.60791-2.52783c0-.01221,.00635-.01855,.01855-.01855l-.01855,.01855Zm.01855-.01855h.01807c0,.01221-.00293,.01855-.00928,.01855-.00586,0-.00879-.00635-.00879-.01855Zm5.87891-9.18896c0-.59033,.20117-1.08545,.604-1.48535,.40283-.39941,.89111-.59961,1.46533-.59961,.57373,0,1.06494,.2002,1.47412,.59961,.40918,.3999,.61377,.89502,.61377,1.48535,0,.59082-.20459,1.08594-.61377,1.48535-.40918,.3999-.90039,.59961-1.47412,.59961-.57422,0-1.0625-.19971-1.46533-.59961-.40283-.39941-.604-.89453-.604-1.48535Z"/>
      <path d="M640.4375,398.1875v3.17334c-1.91699-1.05762-3.83984-1.58691-5.76855-1.58691-1.45312,0-2.69629,.31396-3.72754,.94141-1.03223,.62695-1.81934,1.5376-2.3623,2.73047-.54395,1.19336-.81543,2.62646-.81543,4.29932,0,1.10693,.12207,2.12207,.36621,3.04443,.1709,.62744,.39062,1.1875,.66016,1.6792-.20801-.18457-.37012-.41211-.48535-.68262-.11621-.27051-.1748-.55371-.1748-.84863v-.14795c.03711-.55322,.25391-1.01465,.65039-1.38379s.87012-.55371,1.41992-.55371c.57324,0,1.06445,.2002,1.47363,.6001s.61426,.89453,.61426,1.48535c0,.59033-.20508,1.08545-.61426,1.48535-.40918,.39941-.90039,.59961-1.47363,.59961-.5498,0-1.01953-.18457-1.41016-.55371,.56152,1.05811,1.33984,1.86377,2.33496,2.41699,.99512,.55371,2.17578,.83057,3.54395,.83057,1.92871,0,3.85156-.52881,5.76855-1.58691v3.13672c-1.88086,.88574-3.92578,1.32861-6.13574,1.32861-2.03906,0-3.81836-.44287-5.33789-1.32861-1.52051-.88574-2.69238-2.14648-3.5166-3.78271-.82422-1.63574-1.23633-3.54834-1.23633-5.73828,0-2.22607,.41504-4.1543,1.24512-5.78467,.83008-1.62939,2.02051-2.88135,3.57129-3.75488,1.55078-.87305,3.38184-1.31006,5.49414-1.31006s4.08496,.43066,5.91602,1.29199Zm4.34082,1.14355v0Z"/>
      <path d="M646.09473,389.34912h3.38867v16.95703l10.05371-8.91211h4.30371l-10.87793,9.66846,3.99219,3.875c-.26855-.09863-.50391-.24951-.70508-.45215-.20117-.20312-.35742-.43359-.4668-.69189-.11035-.2583-.16504-.52881-.16504-.81201,0-.57812,.19824-1.07324,.5957-1.48535,.39648-.41211,.8877-.61816,1.47363-.61816s1.07812,.20605,1.47461,.61816,.59473,.90723,.59473,1.48535-.19824,1.07031-.59473,1.47607-.88867,.60889-1.47461,.60889c-.23145,0-.47559-.04297-.73242-.12891l7.34375,7.12207h-4.39551l-10.41992-10.09277v10.09277h-3.38867v-28.71045Zm50.89551,28.50732h0Z"/>
      <path d="M649.16797,408.87061h0Zm33.88184-17.34424v5.86768h6.94043v2.63818h-6.94043v11.21875c0,1.14404,.09375,1.99268,.2832,2.54639,.18945,.55322,.52539,.92871,1.00781,1.12549s1.21094,.29541,2.18848,.29541h3.46094v2.84131h-3.46094c-1.77051,0-3.14453-.20898-4.12109-.62744-.97656-.41797-1.67871-1.11621-2.10547-2.09424-.42773-.97803-.6416-2.34033-.6416-4.08691v-11.21875h-2.47266v-2.63818h2.47266v-5.86768h3.38867Zm8.07617,7.3252c0-.57812,.19824-1.07324,.59473-1.48535,.39746-.41211,.88867-.61816,1.47461-.61816s1.07715,.20605,1.47461,.61816c.39648,.41211,.59473,.90723,.59473,1.48535s-.19824,1.07031-.59473,1.47607c-.39746,.40576-.88867,.60889-1.47461,.60889s-1.07715-.20312-1.47461-.60889c-.39648-.40576-.59473-.89795-.59473-1.47607Zm36.22559,2.10352h0Z"/>
      <path d="M692.57031,418.85303c0-.59033,.20215-1.08545,.60449-1.48535,.40332-.39941,.8916-.59961,1.46582-.59961,.57324,0,1.06445,.2002,1.47363,.59961,.40918,.3999,.61328,.89502,.61328,1.48535s-.2041,1.08545-.61328,1.48535c-.40918,.39941-.90039,.59961-1.47363,.59961-.57422,0-1.0625-.2002-1.46582-.59961-.40234-.3999-.60449-.89502-.60449-1.48535Zm.31152-11.10791c0-2.25098,.37598-4.19141,1.12695-5.82129,.75-1.62988,1.83105-2.87549,3.24121-3.73633,1.41016-.86133,3.0918-1.29199,5.0459-1.29199,1.94043,0,3.61914,.43359,5.03613,1.30078,1.41602,.86719,2.5,2.11279,3.25098,3.73682,.75,1.62354,1.12598,3.56104,1.12598,5.81201,0,2.23926-.37598,4.17334-1.12598,5.80322-.75098,1.62988-1.83496,2.87842-3.25098,3.74561-1.41699,.86719-3.0957,1.30078-5.03613,1.30078-1.94141,0-3.62109-.43359-5.03711-1.30078s-2.5-2.11572-3.25-3.74561c-.75098-1.62988-1.12695-3.56396-1.12695-5.80322Zm9.41406-7.97119c-1.19727,0-2.23438,.32031-3.11426,.95947-.87891,.64014-1.55664,1.55957-2.03223,2.75879-.47656,1.19922-.71484,2.61719-.71484,4.25293,0,1.63623,.23535,3.05371,.70508,4.25293,.4707,1.19971,1.14453,2.11914,2.02441,2.75879,.87891,.63965,1.92285,.95947,3.13184,.95947,1.18359,0,2.21582-.32275,3.09473-.96875s1.55664-1.56836,2.0332-2.76758c.47559-1.19971,.71387-2.61084,.71387-4.23486,0-1.61133-.23828-3.01953-.71387-4.22559-.47656-1.20508-1.1543-2.13086-2.0332-2.77686-.87891-.64551-1.91113-.96875-3.09473-.96875Z"/>
      <path d="M742.14453,398.00293v3.21045c-1.91699-.98389-3.96875-1.47607-6.1543-1.47607-3.34473,0-5.01758,1.0332-5.01758,3.09961,0,.7876,.29883,1.40234,.89746,1.84521,.59766,.45508,1.80078,.88574,3.60742,1.2915l1.1543,.2583c1.61133,.34473,2.89648,.77832,3.85449,1.30127,.95898,.52295,1.6582,1.17139,2.09766,1.94629s.65918,1.73438,.65918,2.87842c0,.24658-.00684,.43066-.01855,.55371-.10938,1.25488-.56152,2.31885-1.35547,3.19189-.21973-.35645-.3291-.73779-.3291-1.14404,0-.5166,.1582-.96191,.47559-1.3374,.31738-.375,.7207-.61182,1.20898-.71045,.1709-.02441,.29883-.03711,.38477-.03711,.57324,0,1.06543,.2002,1.47461,.6001,.4082,.39941,.61328,.89453,.61328,1.48486,0,.59082-.20508,1.08594-.61328,1.48535-.40918,.3999-.90137,.6001-1.47461,.6001-.36621,0-.70215-.08301-1.00781-.24951-.30469-.16602-.54883-.39648-.73242-.69189-.70801,.7998-1.66992,1.41504-2.88379,1.84521-1.21582,.43066-2.62207,.646-4.22168,.646-2.18555,0-4.58496-.43066-7.19727-1.2915v-3.50586c2.47852,1.30371,4.90137,1.95557,7.27051,1.95557,1.5752,0,2.79297-.27344,3.65332-.8208,.86133-.54736,1.29102-1.31934,1.29102-2.31592,0-.91016-.30469-1.61719-.91504-2.12158-.59863-.47998-1.9541-.95312-4.06641-1.4209l-1.17188-.27686c-2.08789-.44287-3.5957-1.12256-4.52344-2.03906-.92773-.91602-1.3916-2.17383-1.3916-3.77295,0-1.94385,.68359-3.44434,2.05078-4.50244,1.36719-1.05762,3.30859-1.58691,5.82422-1.58691,2.52734,0,4.71289,.36914,6.55664,1.10742Zm11.92188,30.86914v0Z"/>
      <path d="M748.5332,389.34912h3.37012v28.71045h-3.37012v-28.71045Zm4.52441,.09229c0-.46729,.16113-.86084,.48535-1.18115,.32324-.31982,.7168-.47949,1.18066-.47949,.45215,0,.83984,.15967,1.16309,.47949,.32324,.32031,.48535,.71387,.48535,1.18115s-.16211,.86084-.48535,1.18066c-.32324,.32031-.71094,.47998-1.16309,.47998-.46387,0-.85742-.15967-1.18066-.47998-.32422-.31982-.48535-.71338-.48535-1.18066Zm6.00684-2.01123v0Zm12.63672-6.27344v0Z"/>
      <path d="M776.42383,406.87793v1.66064h-15.49316c.14648,2.3374,.84473,4.11768,2.09668,5.3418s2.99414,1.83594,5.22852,1.83594c2.51562,0,4.97559-.63965,7.38086-1.91895v3.21045c-2.47852,1.05762-5.00586,1.58691-7.58203,1.58691-2.16113,0-4.04102-.43359-5.64062-1.30078s-2.83301-2.10352-3.69922-3.70898c-.86719-1.60498-1.30078-3.49023-1.30078-5.65527,0-2.23877,.40918-4.18848,1.22754-5.84912,.81738-1.66064,1.9834-2.93994,3.49805-3.83789,1.51367-.89795,3.29004-1.34717,5.3291-1.34717,1.81934,0,3.40332,.40625,4.75293,1.21777,1.34863,.81201,2.38672,1.96826,3.11328,3.46924,.72559,1.50098,1.08887,3.26562,1.08887,5.29541Zm-15.38379-.97803l12.01465-.01855c-.0127-1.22949-.25098-2.30322-.71484-3.21973-.46387-.91602-1.11035-1.62646-1.94043-2.13086-.83105-.50439-1.79492-.75684-2.89453-.75684-1.87988,0-3.38477,.53516-4.51367,1.60547-1.12988,1.07031-1.78027,2.57715-1.95117,4.52051Zm8.66309,15.24121c0-.59082,.20117-1.08594,.60449-1.48535,.40234-.3999,.89062-.59961,1.46484-.59961s1.06543,.19971,1.47461,.59961c.4082,.39941,.61328,.89453,.61328,1.48535,0,.59033-.20508,1.08545-.61328,1.48535-.40918,.39941-.90039,.59961-1.47461,.59961s-1.0625-.2002-1.46484-.59961c-.40332-.3999-.60449-.89502-.60449-1.48535Zm15.91504,21.38525v0Z"/>
      <path d="M799.4248,406.87793v1.66064h-15.49316c.14648,2.3374,.84473,4.11768,2.09668,5.3418s2.99414,1.83594,5.22852,1.83594c2.51562,0,4.97559-.63965,7.38086-1.91895v3.21045c-2.47852,1.05762-5.00586,1.58691-7.58203,1.58691-2.16113,0-4.04102-.43359-5.64062-1.30078s-2.83301-2.10352-3.69922-3.70898c-.86719-1.60498-1.30078-3.49023-1.30078-5.65527,0-2.23877,.40918-4.18848,1.22754-5.84912,.81738-1.66064,1.9834-2.93994,3.49805-3.83789,1.51367-.89795,3.29004-1.34717,5.3291-1.34717,1.81934,0,3.40332,.40625,4.75293,1.21777,1.34863,.81201,2.38672,1.96826,3.11328,3.46924,.72559,1.50098,1.08887,3.26562,1.08887,5.29541Zm-15.38379-.97803l12.01465-.01855c-.0127-1.22949-.25098-2.30322-.71484-3.21973-.46387-.91602-1.11035-1.62646-1.94043-2.13086-.83105-.50439-1.79492-.75684-2.89453-.75684-1.87988,0-3.38477,.53516-4.51367,1.60547-1.12988,1.07031-1.78027,2.57715-1.95117,4.52051Zm8.66309,15.24121c0-.59082,.20117-1.08594,.60449-1.48535,.40234-.3999,.89062-.59961,1.46484-.59961s1.06543,.19971,1.47461,.59961c.4082,.39941,.61328,.89453,.61328,1.48535,0,.59033-.20508,1.08545-.61328,1.48535-.40918,.39941-.90039,.59961-1.47461,.59961s-1.0625-.2002-1.46484-.59961c-.40332-.3999-.60449-.89502-.60449-1.48535Zm15.91504,21.38525v0Z"/>
      <path d="M804.60742,429.42578c0-.59033,.20117-1.08594,.60449-1.48535,.40332-.3999,.8916-.59961,1.46484-.59961,.57422,0,1.06543,.19971,1.47461,.59961,.40918,.39941,.61328,.89502,.61328,1.48535s-.2041,1.08545-.61328,1.48535c-.40918,.39941-.90039,.59961-1.47461,.59961-.57324,0-1.06152-.2002-1.46484-.59961-.40332-.3999-.60449-.89502-.60449-1.48535Zm3.53516-14.46631v10.96045h-3.38867v-28.52588h3.38867v3.13672c.70801-1.22998,1.60254-2.14355,2.68262-2.74023s2.37207-.89502,3.87305-.89502c1.64844,0,3.10742,.45215,4.37793,1.35645,1.26953,.90381,2.25781,2.17725,2.9668,3.81934,.70801,1.64209,1.06152,3.53369,1.06152,5.67383,0,2.14062-.35352,4.03174-1.06152,5.67383-.70898,1.64209-1.69727,2.91553-2.9668,3.81934-1.27051,.9043-2.72949,1.35645-4.37793,1.35645-1.50098,0-2.79297-.29834-3.87305-.89502s-1.97461-1.50977-2.68262-2.74023Zm0-7.21436c0,1.66064,.22852,3.09082,.68652,4.29004s1.11719,2.11914,1.97754,2.7583c.86133,.64014,1.88379,.95947,3.06836,.95947,1.18359,0,2.20605-.31934,3.06738-.95947,.86035-.63916,1.51953-1.55908,1.97754-2.7583s.68652-2.62939,.68652-4.29004-.22852-3.09082-.68652-4.29004-1.11719-2.11865-1.97754-2.7583c-.86133-.63965-1.88379-.95947-3.06738-.95947-1.18457,0-2.20703,.31982-3.06836,.95947-.86035,.63965-1.51953,1.55908-1.97754,2.7583s-.68652,2.62939-.68652,4.29004Zm.87891-1.71582c0-.59033,.20117-1.08545,.60449-1.48535,.40234-.3999,.89062-.59961,1.46484-.59961,.57324,0,1.06543,.19971,1.47461,.59961,.4082,.3999,.61328,.89502,.61328,1.48535s-.20508,1.08545-.61328,1.48535c-.40918,.3999-.90137,.59961-1.47461,.59961-.57422,0-1.0625-.19971-1.46484-.59961-.40332-.3999-.60449-.89502-.60449-1.48535Zm6.92285,58.3623v0Zm12.39844-91.63037v0Z"/>
    </g>
    <path class="cls-2" d="M581.43321,184.65401l-.00016-.00005c-14.96689-17.93214-39.23309-17.93214-54.19998,0l-14.84615,17.78738-15.3174-18.35205c-14.96689-17.93214-39.23309-17.93214-54.19998,0l-.00016,.00005c-14.96685,17.93214-14.96685,47.00584,0,64.93798l69.04629,82.72546h0l.47125,.56467,69.04629-82.72546c14.96689-17.93214,14.96689-47.00584,0-64.93798Z"/>
    <g>
      <path d="M332.7168,206.54053c-1.25928-1.70068-1.19336-3.93115,.30176-5.03857,1.20605-.89307,2.93945-.97266,4.33789-2.00879,1.39893-1.03564,1.43896-2.49463,1.18994-4.04102l-.35498-2.29443-23.44238-14.91309c-.50439-.37842-.96045-.79297-1.32031-1.27881-1.36719-1.84619-1.16797-4.40137,1.09863-6.08008,1.25439-.92871,3.18115-1.45312,5.2832,.07471l17.17871,12.40479,.09619-.07129-7.0127-20.15918c-.82422-2.32373,.22705-3.92969,1.62549-4.96582,1.73633-1.28564,3.90332-1.38574,5.41455,.65479,.35938,.48584,.7793,1.15332,.99365,2.04785l8.28906,29.14404c1.68164,5.90137,.78809,11.75439-4.42139,15.6123-2.99023,2.21436-7.17041,3.73047-9.25732,.9126Z"/>
      <path d="M347.50781,166.43359c-4.81445-8.39111-2.36084-17.25781,5.9668-22.03564,8.53564-4.89697,17.13818-2.44336,22.1333,6.26221,4.72412,8.23389,1.99658,17.4668-6.33105,22.24463-8.17188,4.68799-16.83447,2.12988-21.76904-6.47119Zm19.61621-10.90576c-2.94873-5.13965-6.88818-7.06201-10.21924-5.15088-3.3833,1.94092-3.71973,6.17725-.83105,11.21191s6.75391,7.06885,10.18896,5.09814c3.33105-1.91113,3.68994-6.22949,.86133-11.15918Z"/>
      <path d="M404.50391,125.81982l8.6748,20.88086c.99707,2.40088-.03418,4.92432-2.36182,5.8916-2.2168,.9209-4.58447,.07129-5.71045-2.01416-1.65771,3.83154-4.08496,6.28027-7.29883,7.61572-6.15186,2.55566-11.36865,.00928-14.29102-7.02539l-5.89111-14.18115c-1.04346-2.5127,.0752-5.13818,2.56885-6.17432,2.49414-1.03613,5.08838,.04688,6.13184,2.55908l5.9375,14.29297c1.22949,2.95898,3.375,3.90088,6.47852,2.61133,1.99512-.8291,3.31543-2.03223,4.13477-3.81299l-7.07373-17.02881c-1.04346-2.51221,.0752-5.1377,2.56885-6.17383,2.43848-1.01318,5.08838,.04639,6.13184,2.55908Z"/>
      <path d="M456.77197,120.19092l3.17139,14.16162c.56836,2.53711-.88281,4.84473-3.40088,5.4082-2.1084,.47217-4.12402-.56396-4.98291-2.47852-1.16797,3.29785-4.32129,4.87109-7.3667,5.55273-6.14893,1.37598-10.48779-1.24658-11.84912-7.32422-1.37402-6.13672,2.39551-10.4502,10.35986-12.23291l4.91943-1.10107-.31738-1.41602c-.72656-3.24512-3.14453-3.88135-6.18994-3.19971-2.98633,.66846-5.42383,2.14307-6.53662,2.39209-1.93213,.43262-3.6416-.60986-4.05127-2.43896-.29102-1.29834-.00928-2.78662,1.88184-3.95312,2.18408-1.23242,5.81299-2.60254,8.97559-3.31006,7.4375-1.66455,13.35205,.85303,15.38672,9.93994Zm-6.67773,13.02002l-1.42725-6.37256-3.1626,.70752c-3.51367,.78662-4.70605,2.60254-4.09814,5.31689,.52881,2.36035,2.01123,3.76318,4.70508,3.16016,1.69824-.37988,3.01709-1.35645,3.98291-2.81201Z"/>
      <path d="M486.27734,107.62402c.26562,2.22119-.86035,4.42627-3.89941,4.79053-3.03857,.36426-5.69531,1.90039-7.92285,3.99414l1.86133,15.54736c.32324,2.70117-1.39844,4.97754-4.08008,5.29932-2.68115,.32129-4.95166-1.47705-5.2749-4.17822l-2.68799-22.45068c-.30176-2.521,1.375-4.67041,3.93701-4.97754,2.5625-.30713,4.69922,1.38525,5.00098,3.90674l.17969,1.50049c1.84033-3.81299,4.27197-6.72266,7.96631-7.16553,2.97949-.35693,4.66113,1.57275,4.91992,3.7334Z"/>
      <path d="M517.04883,130.06494c.03809,1.51123-.65137,2.73828-2.37598,3.38672-2.55518,1.03271-5.48291,1.59131-8.72266,1.67334-9.17969,.23389-15.79834-5.10156-16.07129-15.92041-.23242-9.18701,4.69043-16.32764,13.99023-16.56396,8.87988-.22607,12.875,5.84131,13.07031,13.57764,.07617,3.02197-1.56543,4.57568-4.92529,4.66113l-12.59961,.32031c.05908,4.71582,2.76611,7.30811,7.4458,7.18896,3.41992-.08691,5.7251-1.53613,7.16504-1.57275,2.03955-.05225,2.97949,1.49658,3.02344,3.24902Zm-17.69482-13.6416l9.2998-.23633c-.21777-3.86523-1.37549-6.91992-4.37549-6.84375-3.59961,.09131-4.89258,3.57178-4.92432,7.08008Z"/>
      <path d="M565.73975,120.28174l-1.99219,14.37402c-.35693,2.5752-2.5249,4.22803-5.08154,3.87354-2.13965-.29639-3.66455-1.97266-3.79883-4.06689-2.24951,2.6792-5.75391,3.04834-8.8457,2.61963-6.2417-.86523-9.38672-4.84131-8.53174-11.01025,.86328-6.22852,5.90576-8.94775,13.99072-7.82715l4.99365,.69189,.19922-1.4375c.45654-3.29395-1.58545-4.73633-4.67676-5.16504-3.03174-.42041-5.83154,.10742-6.96094-.04932-1.96191-.27197-3.19775-1.84717-2.94043-3.70361,.18262-1.31738,.96826-2.61279,3.14844-3.04297,2.47754-.38916,6.35693-.40088,9.56689,.04395,7.5498,1.04688,12.20752,5.47656,10.9292,14.69971Zm-10.81787,9.85449l.89648-6.46826-3.21045-.44482c-3.56689-.49463-5.31982,.78857-5.70166,3.54346-.33203,2.39551,.56494,4.229,3.2998,4.6084,1.72363,.23877,3.30127-.21387,4.71582-1.23877Z"/>
      <path d="M574.68506,136.80713l-.05615-22.55029c-.01367-3.51904,2.74316-5.13428,5.51758-4.35938,2.25391,.62939,3.54688,2.24609,3.31885,5.06982l-.67627,16.69629,.05811,.01611,8.19385-13.71777c1.53223-2.58496,3.45752-3.6792,6.23193-2.9043,2.60107,.72656,3.67236,2.46924,3.65918,5.41602l-.10938,16.22705,.05811,.01611,8.07275-15.06982c1.18701-2.24219,3.15625-2.82227,5.06348-2.28955,3.06348,.85596,3.97363,3.62061,2.47412,6.08936l-12.03906,19.67432c-1.49951,2.46875-4.2666,3.45312-6.81006,2.74316-2.77441-.7749-4.62207-2.86035-4.47705-5.83301l.19189-14.06982-.11572-.03223-7.22705,12.04199c-1.49951,2.46875-4.09375,3.50195-6.86816,2.72705-2.60107-.72656-4.45752-3.00293-4.46094-5.89111Z"/>
      <path d="M643.79688,145.5874l-5.73145,13.33008c-1.02637,2.38818-3.55469,3.40723-5.92578,2.38818-1.98438-.85303-3.00977-2.87354-2.58398-4.92773-2.87891,1.98682-6.35547,1.41406-9.22266,.18164-5.78857-2.48828-7.7666-7.15527-5.30664-12.87598,2.4834-5.77637,8.06543-7.06201,15.56348-3.83936l4.63086,1.99072,.57324-1.33301c1.31348-3.05469-.27246-4.98682-3.13965-6.21924-2.81152-1.2085-5.65039-1.44189-6.69824-1.89209-1.81934-.78174-2.59277-2.62793-1.85254-4.34961,.52539-1.22217,1.62598-2.2627,3.8418-2.09961,2.49219,.28125,6.23535,1.29785,9.21191,2.57764,7.00195,3.00928,10.31738,8.51465,6.63965,17.06836Zm-13.04199,6.63379l2.5791-5.99854-2.97656-1.27979c-3.30859-1.42139-5.33887-.64893-6.43652,1.90576-.95605,2.22168-.57715,4.22705,1.95898,5.31738,1.59863,.68701,3.24023,.66846,4.875,.05518Z"/>
      <path d="M668.68359,176.30176c-1.19629,2.10205-3.73242,2.67676-5.87109,1.45996-1.14648-.65332-2.25586-1.97998-2.42383-4.23242l-1.09082-13.49121-2.90137,.3667-3.5293,6.20117c-1.3457,2.36475-4.13574,3.14258-6.48242,1.80664-2.29492-1.30566-3.05176-4.10156-1.70605-6.46631l17.49609-30.74268c1.3457-2.36475,4.08398-3.17188,6.43066-1.83643s3.10352,4.13135,1.75781,6.49609l-10.25879,18.02539,14.12305-4.55566c1.4248-.44141,2.67773-.21582,3.56445,.28857,1.98145,1.12793,2.63477,3.37793,1.58789,5.21729-.47852,.84082-1.35938,1.66113-2.83691,2.07275l-8.44531,2.70752,1.12012,13.92529c.07227,1.08496-.08496,1.96924-.53418,2.75732Z"/>
      <path d="M693.36914,193.8667c-.88574,1.22412-2.17871,1.78125-3.94238,1.25-2.65723-.73047-5.32227-2.06348-7.94629-3.96436-7.43652-5.38574-9.45801-13.64355-3.11035-22.4082,5.39062-7.44287,13.63477-10.13086,21.16797-4.67432,7.19238,5.20947,6.68555,12.45703,2.14648,18.72461-1.77344,2.44824-4.02051,2.68701-6.74219,.71533l-10.20508-7.39209c-2.81543,3.78418-2.2373,7.4873,1.55371,10.23291,2.77051,2.00684,5.48145,2.25342,6.64746,3.09814,1.65234,1.19678,1.45996,2.99805,.43066,4.41797Zm-5.78223-21.58203l7.5332,5.45605c2.17188-3.2041,3.10547-6.33496,.67578-8.09521-2.91602-2.11182-6.05469-.13086-8.20898,2.63916Z"/>
    </g>
  </g>
</svg>