<?xml version="1.0" encoding="UTF-8"?><svg xmlns="http://www.w3.org/2000/svg" viewBox="0 0 256 256"><defs><style>.d{fill:#fff;}.e{fill:#0c0c0c;}</style></defs><g id="a"><g><circle class="d" cx="128" cy="128" r="128"/><path class="e" d="M147.65,195.55c2.76-1.47,4.3-3.76,3.26-5.82-1.1-2.16-4.61-3.6-7.9-4.87l-6.48-2.5c-1.94-.75-3.9-1.5-6.08-1.99-2.51-.56-5.22-.74-7.91-.85-1.79-.07-3.63-.12-5.31,.23-1.64,.34-2.99,1.01-4.24,1.69-2.39,1.3-4.65,2.71-6.19,4.38-1.53,1.66-2.29,3.61-1.56,5.44,.76,1.9,3.08,3.53,5.96,4.6,2.88,1.07,6.29,1.63,9.71,1.9,2.53,.2,5.09,.24,7.65,.28,7.33,.12,13.03,.09,19.1-2.48Z"/><ellipse cx="78" cy="107.16" rx="11" ry="14.46"/><ellipse cx="178" cy="113.36" rx="11" ry="14.46"/></g></g><g id="b"/><g id="c"/></svg>