<?xml version="1.0" encoding="UTF-8"?><svg xmlns="http://www.w3.org/2000/svg" viewBox="0 0 256 256"><defs><style>.d{fill:#fff;}.e{fill:#0c0c0c;}.f{stroke-width:5px;}.f,.g{fill:none;stroke:#0c0c0c;stroke-linecap:round;stroke-miterlimit:10;}</style></defs><g id="a"/><g id="b"><g><circle class="d" cx="128" cy="128" r="128"/><path class="e" d="M158.43,132.53c-10.63-4.5-25.2-7.43-36.51,.66-11.88,21.19-17.78,25.57-22.84,27.63-3.33,4.2-6.65,12.31-9.98,21.04-2.98,10.52-5.99,5.31-7.25,19.83-1.44,1.26-.53,4.78,.77,15.61,.86,6.55,1.96-4.87,5.2,13.07,3.16-2.67,8.08-7,13,1.04,9.37-8.89,19.3-17.18,30.17-5.34,10.87-9.88,22.82-15.25,33.01-18.61,10.59-17.32,18.46-19.86,22.67-31.23,4.21,8.6,5.02-6.2,4.08-9.5-.69-11.45-2.31-19.39-3.92-19.45-4.63-2.81-8.95-13.36-28.41-14.74Z"/><path class="f" d="M43.75,83.21c3.5-4.04,7.05-8.12,11.42-11.1,7.49-5.1,17.01-6.54,25.83-4.87,8.82,1.68,16.96,6.3,23.76,12.33,2.66,2.36,5.68,5.13,9.15,4.59"/><path class="f" d="M146.42,87.68c15.05-3.75,29.28-13.86,44.48-11.67,13.88,2,23.54,13.79,29.4,25.77"/><path class="g" d="M146.35,75.77c8.9-7.74,18.82-14.23,29.4-19.22"/><path class="g" d="M153.37,74.79c5.92-3.92,12.05-7.51,18.33-10.77"/><path class="g" d="M116.82,75.98c-3.1-3.92-5.23-8.54-8.07-12.67s-6.66-7.91-11.46-8.88"/><path class="g" d="M107.53,53.88c-4.54-5.89-11.08-10.1-18.2-11.71"/><path class="g" d="M147.81,95.14c4.48,.89,8.96-1.2,13.07-3.24l9.5-4.71"/><path class="g" d="M107.42,93.71c-3.38-.81-6.69-1.95-9.86-3.41-.79-.36-1.59-.76-2.24-1.35-.9-.81-1.46-1.93-2.11-2.96-1.78-2.8-4.4-5.02-7.4-6.28"/></g></g><g id="c"/></svg>