<?xml version="1.0" encoding="UTF-8"?><svg xmlns="http://www.w3.org/2000/svg" xmlns:xlink="http://www.w3.org/1999/xlink" viewBox="0 0 4000 4000"><defs><style>.d{fill:#0c0c0c;}.e{stroke:#262626;stroke-miterlimit:10;stroke-width:4px;}.e,.f{fill:none;}.g{fill:url(#b);}</style><pattern id="b" x="0" y="0" width="503.498" height="622.511" patternUnits="userSpaceOnUse" viewBox="0 0 503.498 622.511"><g><rect class="f" width="503.498" height="622.511"/><g><path class="e" d="M516.315,459.155c-.462-12.256-4.778-24.338-12.185-34.113"/><path class="e" d="M465.515,622.033c-3.493-14.174-2.326-29.455,3.278-42.935"/></g><g><path class="e" d="M264.566,459.155c-.462-12.256-4.778-24.338-12.185-34.113"/><path class="e" d="M274.206,443.171c-2.061-9.162-2.717-18.639-1.938-27.997"/><path class="e" d="M291.897,447.157c.38-10.411,4.961-20.608,12.492-27.806"/><path class="e" d="M404.416,527.426c-5.598,4.4-8.831,11.648-8.363,18.753"/><path class="e" d="M386.575,566.168c-.008-12.554-4.67-25.053-12.885-34.547"/><path class="e" d="M213.766,622.033c-3.493-14.174-2.326-29.455,3.278-42.935"/><path class="e" d="M459.554,451.128l-2.386-19.954"/></g><g><path class="e" d="M12.817,459.155c-.462-12.256-4.778-24.338-12.185-34.113"/><path class="e" d="M22.457,443.171c-2.061-9.162-2.717-18.639-1.938-27.997"/><path class="e" d="M40.148,447.157c.38-10.411,4.961-20.608,12.492-27.806"/><path class="e" d="M152.667,527.426c-5.598,4.4-8.831,11.648-8.363,18.753"/><path class="e" d="M134.826,566.168c-.008-12.554-4.67-25.053-12.885-34.547"/><path class="e" d="M207.805,451.128l-2.386-19.954"/></g><g><path class="e" d="M432.398,251.652c-.462-12.256-4.778-24.338-12.185-34.113"/><path class="e" d="M442.038,235.667c-2.061-9.162-2.717-18.639-1.938-27.997"/><path class="e" d="M459.729,239.653c.38-10.411,4.961-20.608,12.492-27.806"/><path class="e" d="M381.599,414.529c-3.493-14.174-2.326-29.455,3.278-42.935"/></g><g><path class="e" d="M180.65,251.652c-.462-12.256-4.778-24.338-12.185-34.113"/><path class="e" d="M190.29,235.667c-2.061-9.162-2.717-18.639-1.938-27.997"/><path class="e" d="M207.98,239.653c.38-10.411,4.961-20.608,12.492-27.806"/><path class="e" d="M320.5,319.923c-5.598,4.4-8.831,11.648-8.363,18.753"/><path class="e" d="M302.659,358.665c-.008-12.554-4.67-25.053-12.885-34.547"/><path class="e" d="M129.85,414.529c-3.493-14.174-2.326-29.455,3.278-42.935"/><path class="e" d="M375.638,243.624l-2.386-19.954"/></g><g><path class="e" d="M68.751,319.923c-5.598,4.4-8.831,11.648-8.363,18.753"/><path class="e" d="M50.91,358.665c-.008-12.554-4.67-25.053-12.885-34.547"/><path class="e" d="M123.889,243.624l-2.386-19.954"/></g><g><path class="e" d="M348.482,44.148c-.462-12.256-4.778-24.338-12.185-34.113"/><path class="e" d="M358.122,28.163c-2.061-9.162-2.717-18.639-1.938-27.997"/><path class="e" d="M375.813,32.15c.38-10.411,4.961-20.608,12.492-27.806"/><path class="e" d="M488.333,112.419c-5.598,4.4-8.831,11.648-8.363,18.753"/><path class="e" d="M470.492,151.161c-.008-12.554-4.67-25.053-12.885-34.547"/><path class="e" d="M297.683,207.025c-3.493-14.174-2.326-29.455,3.278-42.935"/></g><g><path class="e" d="M96.733,44.148c-.462-12.256-4.778-24.338-12.185-34.113"/><path class="e" d="M106.373,28.163c-2.061-9.162-2.717-18.639-1.938-27.997"/><path class="e" d="M124.064,32.15c.38-10.411,4.961-20.608,12.492-27.806"/><path class="e" d="M236.584,112.419c-5.598,4.4-8.831,11.648-8.363,18.753"/><path class="e" d="M218.743,151.161c-.008-12.554-4.67-25.053-12.885-34.547"/><path class="e" d="M45.934,207.025c-3.493-14.174-2.326-29.455,3.278-42.935"/><path class="e" d="M291.721,36.121l-2.386-19.954"/></g><path class="e" d="M39.972,36.121l-2.386-19.954"/></g></pattern></defs><g id="a"><g><rect class="d" x=".5" y=".5" width="3999" height="3999"/><path d="M3999,1V3999H1V1H3999m1-1H0V4000H4000V0h0Z"/></g><g><rect class="g" x=".5" y=".5" width="3999" height="3999"/><path d="M3999,1V3999H1V1H3999m1-1H0V4000H4000V0h0Z"/></g></g><g id="c"/></svg>